G04 #@! TF.GenerationSoftware,KiCad,Pcbnew,(5.1.5-0-10_14)*
G04 #@! TF.CreationDate,2020-08-10T00:11:30+03:00*
G04 #@! TF.ProjectId,booster-op-amp,626f6f73-7465-4722-9d6f-702d616d702e,1*
G04 #@! TF.SameCoordinates,Original*
G04 #@! TF.FileFunction,Copper,L2,Bot*
G04 #@! TF.FilePolarity,Positive*
%FSLAX46Y46*%
G04 Gerber Fmt 4.6, Leading zero omitted, Abs format (unit mm)*
G04 Created by KiCad (PCBNEW (5.1.5-0-10_14)) date 2020-08-10 00:11:30*
%MOMM*%
%LPD*%
G04 APERTURE LIST*
%ADD10C,0.300000*%
%ADD11C,2.499360*%
%ADD12R,2.499360X2.499360*%
%ADD13O,2.400000X1.600000*%
%ADD14R,2.400000X1.600000*%
%ADD15C,2.340000*%
%ADD16O,1.600000X1.600000*%
%ADD17C,1.600000*%
%ADD18R,1.600000X1.600000*%
%ADD19C,0.500000*%
%ADD20C,0.254000*%
G04 APERTURE END LIST*
D10*
X166388000Y-83768000D02*
G75*
G02X168388000Y-85768000I0J-2000000D01*
G01*
X168388000Y-110768000D02*
G75*
G02X166388000Y-112768000I-2000000J0D01*
G01*
X119388000Y-112768000D02*
G75*
G02X117388000Y-110768000I0J2000000D01*
G01*
X117388000Y-85768000D02*
G75*
G02X119388000Y-83768000I2000000J0D01*
G01*
X119388000Y-112768000D02*
X166388000Y-112768000D01*
X117388000Y-85768000D02*
X117388000Y-110768000D01*
X166388000Y-83768000D02*
X119388000Y-83768000D01*
X168362000Y-110768000D02*
X168362000Y-85768000D01*
D11*
X127862000Y-87768000D03*
X153362000Y-87768000D03*
X121112000Y-108768000D03*
D12*
X124922000Y-108768000D03*
D13*
X142242000Y-99658000D03*
X149862000Y-92038000D03*
X142242000Y-97118000D03*
X149862000Y-94578000D03*
X142242000Y-94578000D03*
X149862000Y-97118000D03*
X142242000Y-92038000D03*
D14*
X149862000Y-99658000D03*
D15*
X147862000Y-87884000D03*
X142862000Y-87884000D03*
X137862000Y-87884000D03*
D16*
X120862000Y-100938000D03*
D17*
X120862000Y-90778000D03*
D16*
X124862000Y-100938000D03*
D17*
X124862000Y-90778000D03*
D16*
X135362000Y-90778000D03*
D17*
X135362000Y-100938000D03*
D16*
X151117000Y-103018000D03*
D17*
X140957000Y-103018000D03*
D16*
X157362000Y-90778000D03*
D17*
X157362000Y-100938000D03*
D16*
X164862000Y-90778000D03*
D17*
X164862000Y-100938000D03*
D16*
X161112000Y-90778000D03*
D17*
X161112000Y-100938000D03*
D16*
X161272000Y-106268000D03*
D17*
X151112000Y-106268000D03*
D16*
X141022000Y-106268000D03*
D17*
X130862000Y-106268000D03*
X130362000Y-94563112D03*
D18*
X130362000Y-97063112D03*
D17*
X138862000Y-93358000D03*
X138862000Y-98358000D03*
X153862000Y-93358000D03*
X153862000Y-98358000D03*
X160362000Y-87768000D03*
X165362000Y-87768000D03*
X146037000Y-108768000D03*
D18*
X146037000Y-106268000D03*
D19*
X149552000Y-94578000D02*
X149862000Y-94578000D01*
X146037000Y-98093000D02*
X149552000Y-94578000D01*
X146037000Y-106268000D02*
X146037000Y-98093000D01*
X151112000Y-106268000D02*
X146037000Y-106268000D01*
X146037000Y-106268000D02*
X141022000Y-106268000D01*
X143942000Y-92038000D02*
X142242000Y-92038000D01*
X147132000Y-92038000D02*
X143942000Y-92038000D01*
X149672000Y-94578000D02*
X147132000Y-92038000D01*
X149862000Y-94578000D02*
X149672000Y-94578000D01*
X161112000Y-88518000D02*
X160362000Y-87768000D01*
X161112000Y-90778000D02*
X161112000Y-88518000D01*
X160362000Y-87768000D02*
X153362000Y-87768000D01*
X164862000Y-88268000D02*
X165362000Y-87768000D01*
X164862000Y-90778000D02*
X164862000Y-88268000D01*
X164862000Y-98278000D02*
X157362000Y-90778000D01*
X164862000Y-100938000D02*
X164862000Y-98278000D01*
X156442000Y-90778000D02*
X153862000Y-93358000D01*
X157362000Y-90778000D02*
X156442000Y-90778000D01*
X152056000Y-97118000D02*
X149862000Y-97118000D01*
X153862000Y-95312000D02*
X152056000Y-97118000D01*
X153862000Y-93358000D02*
X153862000Y-95312000D01*
X152562000Y-99658000D02*
X149862000Y-99658000D01*
X153862000Y-98358000D02*
X152562000Y-99658000D01*
X156442000Y-100938000D02*
X153862000Y-98358000D01*
X157362000Y-100938000D02*
X156442000Y-100938000D01*
X149862000Y-101763000D02*
X151117000Y-103018000D01*
X149862000Y-99658000D02*
X149862000Y-101763000D01*
X140082000Y-94578000D02*
X138862000Y-93358000D01*
X142242000Y-94578000D02*
X140082000Y-94578000D01*
X144612000Y-101518000D02*
X144612000Y-95248000D01*
X140957000Y-103018000D02*
X143112000Y-103018000D01*
X144612000Y-95248000D02*
X143942000Y-94578000D01*
X143942000Y-94578000D02*
X142242000Y-94578000D01*
X143112000Y-103018000D02*
X144612000Y-101518000D01*
X142862000Y-87768000D02*
X147862000Y-87768000D01*
X138862000Y-91768000D02*
X138862000Y-93358000D01*
X142862000Y-87768000D02*
X138862000Y-91768000D01*
X140102000Y-97118000D02*
X138862000Y-98358000D01*
X142242000Y-97118000D02*
X140102000Y-97118000D01*
X131487112Y-97063112D02*
X130362000Y-97063112D01*
X135362000Y-100938000D02*
X131487112Y-97063112D01*
X138862000Y-98374000D02*
X136298000Y-100938000D01*
X136298000Y-100938000D02*
X135362000Y-100938000D01*
X138862000Y-98358000D02*
X138862000Y-98374000D01*
X124862000Y-99806630D02*
X124862000Y-100938000D01*
X124862000Y-99389555D02*
X124862000Y-99806630D01*
X129688443Y-94563112D02*
X124862000Y-99389555D01*
X130362000Y-94563112D02*
X129688443Y-94563112D01*
X124862000Y-96938000D02*
X120862000Y-100938000D01*
X124862000Y-90778000D02*
X124862000Y-96938000D01*
X124862000Y-90768000D02*
X127862000Y-87768000D01*
X124862000Y-90778000D02*
X124862000Y-90768000D01*
X129112000Y-106268000D02*
X130862000Y-106268000D01*
X126612000Y-108768000D02*
X129112000Y-106268000D01*
X124922000Y-108768000D02*
X126612000Y-108768000D01*
X141388000Y-99658000D02*
X142242000Y-99658000D01*
X134778000Y-106268000D02*
X141388000Y-99658000D01*
X130862000Y-106268000D02*
X134778000Y-106268000D01*
X135362000Y-90268000D02*
X137862000Y-87768000D01*
X135362000Y-90778000D02*
X135362000Y-90268000D01*
D20*
G36*
X166623260Y-84579832D02*
G01*
X166849568Y-84648158D01*
X167058288Y-84759137D01*
X167241478Y-84908544D01*
X167392162Y-85090688D01*
X167504592Y-85298624D01*
X167574496Y-85524447D01*
X167586212Y-85635921D01*
X167577001Y-85729439D01*
X167577000Y-110806560D01*
X167586248Y-110900457D01*
X167576168Y-111003262D01*
X167507843Y-111229565D01*
X167396864Y-111438288D01*
X167247458Y-111621477D01*
X167065314Y-111772159D01*
X166857377Y-111884591D01*
X166631552Y-111954496D01*
X166360353Y-111983000D01*
X119426388Y-111983000D01*
X119152738Y-111956168D01*
X118926435Y-111887843D01*
X118717712Y-111776864D01*
X118534523Y-111627458D01*
X118383841Y-111445314D01*
X118271409Y-111237377D01*
X118201504Y-111011552D01*
X118173000Y-110740353D01*
X118173000Y-110081377D01*
X119978229Y-110081377D01*
X120104104Y-110371315D01*
X120436262Y-110537139D01*
X120794387Y-110634975D01*
X121164719Y-110661065D01*
X121533025Y-110614405D01*
X121885151Y-110496789D01*
X122119896Y-110371315D01*
X122245771Y-110081377D01*
X121112000Y-108947605D01*
X119978229Y-110081377D01*
X118173000Y-110081377D01*
X118173000Y-108820719D01*
X119218935Y-108820719D01*
X119265595Y-109189025D01*
X119383211Y-109541151D01*
X119508685Y-109775896D01*
X119798623Y-109901771D01*
X120932395Y-108768000D01*
X121291605Y-108768000D01*
X122425377Y-109901771D01*
X122715315Y-109775896D01*
X122881139Y-109443738D01*
X122978975Y-109085613D01*
X123005065Y-108715281D01*
X122958405Y-108346975D01*
X122840789Y-107994849D01*
X122715315Y-107760104D01*
X122425377Y-107634229D01*
X121291605Y-108768000D01*
X120932395Y-108768000D01*
X119798623Y-107634229D01*
X119508685Y-107760104D01*
X119342861Y-108092262D01*
X119245025Y-108450387D01*
X119218935Y-108820719D01*
X118173000Y-108820719D01*
X118173000Y-107454623D01*
X119978229Y-107454623D01*
X121112000Y-108588395D01*
X122245771Y-107454623D01*
X122119896Y-107164685D01*
X121787738Y-106998861D01*
X121429613Y-106901025D01*
X121059281Y-106874935D01*
X120690975Y-106921595D01*
X120338849Y-107039211D01*
X120104104Y-107164685D01*
X119978229Y-107454623D01*
X118173000Y-107454623D01*
X118173000Y-100796665D01*
X119427000Y-100796665D01*
X119427000Y-101079335D01*
X119482147Y-101356574D01*
X119590320Y-101617727D01*
X119747363Y-101852759D01*
X119947241Y-102052637D01*
X120182273Y-102209680D01*
X120443426Y-102317853D01*
X120720665Y-102373000D01*
X121003335Y-102373000D01*
X121280574Y-102317853D01*
X121541727Y-102209680D01*
X121776759Y-102052637D01*
X121976637Y-101852759D01*
X122133680Y-101617727D01*
X122241853Y-101356574D01*
X122297000Y-101079335D01*
X122297000Y-100796665D01*
X122290017Y-100761561D01*
X124084131Y-98967448D01*
X124040411Y-99049243D01*
X123989805Y-99216066D01*
X123977000Y-99346079D01*
X123977000Y-99346086D01*
X123972719Y-99389555D01*
X123977000Y-99433024D01*
X123977000Y-99803479D01*
X123947241Y-99823363D01*
X123747363Y-100023241D01*
X123590320Y-100258273D01*
X123482147Y-100519426D01*
X123427000Y-100796665D01*
X123427000Y-101079335D01*
X123482147Y-101356574D01*
X123590320Y-101617727D01*
X123747363Y-101852759D01*
X123947241Y-102052637D01*
X124182273Y-102209680D01*
X124443426Y-102317853D01*
X124720665Y-102373000D01*
X125003335Y-102373000D01*
X125280574Y-102317853D01*
X125541727Y-102209680D01*
X125776759Y-102052637D01*
X125976637Y-101852759D01*
X126133680Y-101617727D01*
X126241853Y-101356574D01*
X126297000Y-101079335D01*
X126297000Y-100796665D01*
X126241853Y-100519426D01*
X126133680Y-100258273D01*
X125976637Y-100023241D01*
X125776759Y-99823363D01*
X125747000Y-99803479D01*
X125747000Y-99756133D01*
X128923928Y-96579206D01*
X128923928Y-97863112D01*
X128936188Y-97987594D01*
X128972498Y-98107292D01*
X129031463Y-98217606D01*
X129110815Y-98314297D01*
X129207506Y-98393649D01*
X129317820Y-98452614D01*
X129437518Y-98488924D01*
X129562000Y-98501184D01*
X131162000Y-98501184D01*
X131286482Y-98488924D01*
X131406180Y-98452614D01*
X131516494Y-98393649D01*
X131543724Y-98371302D01*
X133933983Y-100761561D01*
X133927000Y-100796665D01*
X133927000Y-101079335D01*
X133982147Y-101356574D01*
X134090320Y-101617727D01*
X134247363Y-101852759D01*
X134447241Y-102052637D01*
X134682273Y-102209680D01*
X134943426Y-102317853D01*
X135220665Y-102373000D01*
X135503335Y-102373000D01*
X135780574Y-102317853D01*
X136041727Y-102209680D01*
X136276759Y-102052637D01*
X136476637Y-101852759D01*
X136513616Y-101797416D01*
X136638313Y-101759589D01*
X136792059Y-101677411D01*
X136926817Y-101566817D01*
X136954534Y-101533044D01*
X138698907Y-99788672D01*
X138720665Y-99793000D01*
X139003335Y-99793000D01*
X139280574Y-99737853D01*
X139541727Y-99629680D01*
X139776759Y-99472637D01*
X139976637Y-99272759D01*
X140133680Y-99037727D01*
X140241853Y-98776574D01*
X140297000Y-98499335D01*
X140297000Y-98216665D01*
X140290017Y-98181561D01*
X140468579Y-98003000D01*
X140711922Y-98003000D01*
X140822392Y-98137608D01*
X141040899Y-98316932D01*
X141173858Y-98388000D01*
X141040899Y-98459068D01*
X140822392Y-98638392D01*
X140643068Y-98856899D01*
X140509818Y-99106192D01*
X140432133Y-99362288D01*
X134411422Y-105383000D01*
X131996521Y-105383000D01*
X131976637Y-105353241D01*
X131776759Y-105153363D01*
X131541727Y-104996320D01*
X131280574Y-104888147D01*
X131003335Y-104833000D01*
X130720665Y-104833000D01*
X130443426Y-104888147D01*
X130182273Y-104996320D01*
X129947241Y-105153363D01*
X129747363Y-105353241D01*
X129727479Y-105383000D01*
X129155469Y-105383000D01*
X129112000Y-105378719D01*
X129068531Y-105383000D01*
X129068523Y-105383000D01*
X128938510Y-105395805D01*
X128771687Y-105446411D01*
X128617941Y-105528589D01*
X128516953Y-105611468D01*
X128516951Y-105611470D01*
X128483183Y-105639183D01*
X128455470Y-105672951D01*
X126782850Y-107345571D01*
X126761182Y-107274140D01*
X126702217Y-107163826D01*
X126622865Y-107067135D01*
X126526174Y-106987783D01*
X126415860Y-106928818D01*
X126296162Y-106892508D01*
X126171680Y-106880248D01*
X123672320Y-106880248D01*
X123547838Y-106892508D01*
X123428140Y-106928818D01*
X123317826Y-106987783D01*
X123221135Y-107067135D01*
X123141783Y-107163826D01*
X123082818Y-107274140D01*
X123046508Y-107393838D01*
X123034248Y-107518320D01*
X123034248Y-110017680D01*
X123046508Y-110142162D01*
X123082818Y-110261860D01*
X123141783Y-110372174D01*
X123221135Y-110468865D01*
X123317826Y-110548217D01*
X123428140Y-110607182D01*
X123547838Y-110643492D01*
X123672320Y-110655752D01*
X126171680Y-110655752D01*
X126296162Y-110643492D01*
X126415860Y-110607182D01*
X126526174Y-110548217D01*
X126622865Y-110468865D01*
X126702217Y-110372174D01*
X126761182Y-110261860D01*
X126797492Y-110142162D01*
X126809752Y-110017680D01*
X126809752Y-109760702D01*
X145223903Y-109760702D01*
X145295486Y-110004671D01*
X145550996Y-110125571D01*
X145825184Y-110194300D01*
X146107512Y-110208217D01*
X146387130Y-110166787D01*
X146653292Y-110071603D01*
X146778514Y-110004671D01*
X146850097Y-109760702D01*
X146037000Y-108947605D01*
X145223903Y-109760702D01*
X126809752Y-109760702D01*
X126809752Y-109632835D01*
X126952313Y-109589589D01*
X127106059Y-109507411D01*
X127240817Y-109396817D01*
X127268534Y-109363044D01*
X127793066Y-108838512D01*
X144596783Y-108838512D01*
X144638213Y-109118130D01*
X144733397Y-109384292D01*
X144800329Y-109509514D01*
X145044298Y-109581097D01*
X145857395Y-108768000D01*
X146216605Y-108768000D01*
X147029702Y-109581097D01*
X147273671Y-109509514D01*
X147394571Y-109254004D01*
X147463300Y-108979816D01*
X147477217Y-108697488D01*
X147435787Y-108417870D01*
X147340603Y-108151708D01*
X147273671Y-108026486D01*
X147029702Y-107954903D01*
X146216605Y-108768000D01*
X145857395Y-108768000D01*
X145044298Y-107954903D01*
X144800329Y-108026486D01*
X144679429Y-108281996D01*
X144610700Y-108556184D01*
X144596783Y-108838512D01*
X127793066Y-108838512D01*
X129478579Y-107153000D01*
X129727479Y-107153000D01*
X129747363Y-107182759D01*
X129947241Y-107382637D01*
X130182273Y-107539680D01*
X130443426Y-107647853D01*
X130720665Y-107703000D01*
X131003335Y-107703000D01*
X131280574Y-107647853D01*
X131541727Y-107539680D01*
X131776759Y-107382637D01*
X131976637Y-107182759D01*
X131996521Y-107153000D01*
X134734531Y-107153000D01*
X134778000Y-107157281D01*
X134821469Y-107153000D01*
X134821477Y-107153000D01*
X134951490Y-107140195D01*
X135118313Y-107089589D01*
X135272059Y-107007411D01*
X135406817Y-106896817D01*
X135434534Y-106863044D01*
X139547100Y-102750478D01*
X139522000Y-102876665D01*
X139522000Y-103159335D01*
X139577147Y-103436574D01*
X139685320Y-103697727D01*
X139842363Y-103932759D01*
X140042241Y-104132637D01*
X140277273Y-104289680D01*
X140538426Y-104397853D01*
X140815665Y-104453000D01*
X141098335Y-104453000D01*
X141375574Y-104397853D01*
X141636727Y-104289680D01*
X141871759Y-104132637D01*
X142071637Y-103932759D01*
X142091521Y-103903000D01*
X143068531Y-103903000D01*
X143112000Y-103907281D01*
X143155469Y-103903000D01*
X143155477Y-103903000D01*
X143285490Y-103890195D01*
X143452313Y-103839589D01*
X143606059Y-103757411D01*
X143740817Y-103646817D01*
X143768534Y-103613044D01*
X145152000Y-102229578D01*
X145152000Y-104838299D01*
X145112518Y-104842188D01*
X144992820Y-104878498D01*
X144882506Y-104937463D01*
X144785815Y-105016815D01*
X144706463Y-105113506D01*
X144647498Y-105223820D01*
X144611188Y-105343518D01*
X144607299Y-105383000D01*
X142156521Y-105383000D01*
X142136637Y-105353241D01*
X141936759Y-105153363D01*
X141701727Y-104996320D01*
X141440574Y-104888147D01*
X141163335Y-104833000D01*
X140880665Y-104833000D01*
X140603426Y-104888147D01*
X140342273Y-104996320D01*
X140107241Y-105153363D01*
X139907363Y-105353241D01*
X139750320Y-105588273D01*
X139642147Y-105849426D01*
X139587000Y-106126665D01*
X139587000Y-106409335D01*
X139642147Y-106686574D01*
X139750320Y-106947727D01*
X139907363Y-107182759D01*
X140107241Y-107382637D01*
X140342273Y-107539680D01*
X140603426Y-107647853D01*
X140880665Y-107703000D01*
X141163335Y-107703000D01*
X141440574Y-107647853D01*
X141701727Y-107539680D01*
X141936759Y-107382637D01*
X142136637Y-107182759D01*
X142156521Y-107153000D01*
X144607299Y-107153000D01*
X144611188Y-107192482D01*
X144647498Y-107312180D01*
X144706463Y-107422494D01*
X144785815Y-107519185D01*
X144882506Y-107598537D01*
X144992820Y-107657502D01*
X145112518Y-107693812D01*
X145237000Y-107706072D01*
X145244215Y-107706072D01*
X145223903Y-107775298D01*
X146037000Y-108588395D01*
X146850097Y-107775298D01*
X146829785Y-107706072D01*
X146837000Y-107706072D01*
X146961482Y-107693812D01*
X147081180Y-107657502D01*
X147191494Y-107598537D01*
X147288185Y-107519185D01*
X147367537Y-107422494D01*
X147426502Y-107312180D01*
X147462812Y-107192482D01*
X147466701Y-107153000D01*
X149977479Y-107153000D01*
X149997363Y-107182759D01*
X150197241Y-107382637D01*
X150432273Y-107539680D01*
X150693426Y-107647853D01*
X150970665Y-107703000D01*
X151253335Y-107703000D01*
X151530574Y-107647853D01*
X151791727Y-107539680D01*
X152026759Y-107382637D01*
X152226637Y-107182759D01*
X152383680Y-106947727D01*
X152491853Y-106686574D01*
X152505684Y-106617039D01*
X159880096Y-106617039D01*
X159920754Y-106751087D01*
X160040963Y-107005420D01*
X160208481Y-107231414D01*
X160416869Y-107420385D01*
X160658119Y-107565070D01*
X160922960Y-107659909D01*
X161145000Y-107538624D01*
X161145000Y-106395000D01*
X161399000Y-106395000D01*
X161399000Y-107538624D01*
X161621040Y-107659909D01*
X161885881Y-107565070D01*
X162127131Y-107420385D01*
X162335519Y-107231414D01*
X162503037Y-107005420D01*
X162623246Y-106751087D01*
X162663904Y-106617039D01*
X162541915Y-106395000D01*
X161399000Y-106395000D01*
X161145000Y-106395000D01*
X160002085Y-106395000D01*
X159880096Y-106617039D01*
X152505684Y-106617039D01*
X152547000Y-106409335D01*
X152547000Y-106126665D01*
X152505685Y-105918961D01*
X159880096Y-105918961D01*
X160002085Y-106141000D01*
X161145000Y-106141000D01*
X161145000Y-104997376D01*
X161399000Y-104997376D01*
X161399000Y-106141000D01*
X162541915Y-106141000D01*
X162663904Y-105918961D01*
X162623246Y-105784913D01*
X162503037Y-105530580D01*
X162335519Y-105304586D01*
X162127131Y-105115615D01*
X161885881Y-104970930D01*
X161621040Y-104876091D01*
X161399000Y-104997376D01*
X161145000Y-104997376D01*
X160922960Y-104876091D01*
X160658119Y-104970930D01*
X160416869Y-105115615D01*
X160208481Y-105304586D01*
X160040963Y-105530580D01*
X159920754Y-105784913D01*
X159880096Y-105918961D01*
X152505685Y-105918961D01*
X152491853Y-105849426D01*
X152383680Y-105588273D01*
X152226637Y-105353241D01*
X152026759Y-105153363D01*
X151791727Y-104996320D01*
X151530574Y-104888147D01*
X151253335Y-104833000D01*
X150970665Y-104833000D01*
X150693426Y-104888147D01*
X150432273Y-104996320D01*
X150197241Y-105153363D01*
X149997363Y-105353241D01*
X149977479Y-105383000D01*
X147466701Y-105383000D01*
X147462812Y-105343518D01*
X147426502Y-105223820D01*
X147367537Y-105113506D01*
X147288185Y-105016815D01*
X147191494Y-104937463D01*
X147081180Y-104878498D01*
X146961482Y-104842188D01*
X146922000Y-104838299D01*
X146922000Y-98459578D01*
X148041892Y-97339687D01*
X148047764Y-97399309D01*
X148129818Y-97669808D01*
X148263068Y-97919101D01*
X148442392Y-98137608D01*
X148555482Y-98230419D01*
X148537518Y-98232188D01*
X148417820Y-98268498D01*
X148307506Y-98327463D01*
X148210815Y-98406815D01*
X148131463Y-98503506D01*
X148072498Y-98613820D01*
X148036188Y-98733518D01*
X148023928Y-98858000D01*
X148023928Y-100458000D01*
X148036188Y-100582482D01*
X148072498Y-100702180D01*
X148131463Y-100812494D01*
X148210815Y-100909185D01*
X148307506Y-100988537D01*
X148417820Y-101047502D01*
X148537518Y-101083812D01*
X148662000Y-101096072D01*
X148977001Y-101096072D01*
X148977001Y-101719521D01*
X148972719Y-101763000D01*
X148989805Y-101936490D01*
X149040412Y-102103313D01*
X149122590Y-102257059D01*
X149205468Y-102358046D01*
X149205471Y-102358049D01*
X149233184Y-102391817D01*
X149266951Y-102419529D01*
X149688983Y-102841561D01*
X149682000Y-102876665D01*
X149682000Y-103159335D01*
X149737147Y-103436574D01*
X149845320Y-103697727D01*
X150002363Y-103932759D01*
X150202241Y-104132637D01*
X150437273Y-104289680D01*
X150698426Y-104397853D01*
X150975665Y-104453000D01*
X151258335Y-104453000D01*
X151535574Y-104397853D01*
X151796727Y-104289680D01*
X152031759Y-104132637D01*
X152231637Y-103932759D01*
X152388680Y-103697727D01*
X152496853Y-103436574D01*
X152552000Y-103159335D01*
X152552000Y-102876665D01*
X152496853Y-102599426D01*
X152388680Y-102338273D01*
X152231637Y-102103241D01*
X152031759Y-101903363D01*
X151796727Y-101746320D01*
X151535574Y-101638147D01*
X151258335Y-101583000D01*
X150975665Y-101583000D01*
X150940561Y-101589983D01*
X150747000Y-101396422D01*
X150747000Y-101096072D01*
X151062000Y-101096072D01*
X151186482Y-101083812D01*
X151306180Y-101047502D01*
X151416494Y-100988537D01*
X151513185Y-100909185D01*
X151592537Y-100812494D01*
X151651502Y-100702180D01*
X151687812Y-100582482D01*
X151691701Y-100543000D01*
X152518531Y-100543000D01*
X152562000Y-100547281D01*
X152605469Y-100543000D01*
X152605477Y-100543000D01*
X152735490Y-100530195D01*
X152902313Y-100479589D01*
X153056059Y-100397411D01*
X153190817Y-100286817D01*
X153218534Y-100253044D01*
X153685561Y-99786017D01*
X153720665Y-99793000D01*
X154003335Y-99793000D01*
X154038439Y-99786017D01*
X155785470Y-101533049D01*
X155813183Y-101566817D01*
X155846951Y-101594530D01*
X155846953Y-101594532D01*
X155875216Y-101617727D01*
X155947941Y-101677411D01*
X156101687Y-101759589D01*
X156206317Y-101791329D01*
X156247363Y-101852759D01*
X156447241Y-102052637D01*
X156682273Y-102209680D01*
X156943426Y-102317853D01*
X157220665Y-102373000D01*
X157503335Y-102373000D01*
X157780574Y-102317853D01*
X158041727Y-102209680D01*
X158276759Y-102052637D01*
X158398694Y-101930702D01*
X160298903Y-101930702D01*
X160370486Y-102174671D01*
X160625996Y-102295571D01*
X160900184Y-102364300D01*
X161182512Y-102378217D01*
X161462130Y-102336787D01*
X161728292Y-102241603D01*
X161853514Y-102174671D01*
X161925097Y-101930702D01*
X161112000Y-101117605D01*
X160298903Y-101930702D01*
X158398694Y-101930702D01*
X158476637Y-101852759D01*
X158633680Y-101617727D01*
X158741853Y-101356574D01*
X158797000Y-101079335D01*
X158797000Y-101008512D01*
X159671783Y-101008512D01*
X159713213Y-101288130D01*
X159808397Y-101554292D01*
X159875329Y-101679514D01*
X160119298Y-101751097D01*
X160932395Y-100938000D01*
X161291605Y-100938000D01*
X162104702Y-101751097D01*
X162348671Y-101679514D01*
X162469571Y-101424004D01*
X162538300Y-101149816D01*
X162552217Y-100867488D01*
X162510787Y-100587870D01*
X162415603Y-100321708D01*
X162348671Y-100196486D01*
X162104702Y-100124903D01*
X161291605Y-100938000D01*
X160932395Y-100938000D01*
X160119298Y-100124903D01*
X159875329Y-100196486D01*
X159754429Y-100451996D01*
X159685700Y-100726184D01*
X159671783Y-101008512D01*
X158797000Y-101008512D01*
X158797000Y-100796665D01*
X158741853Y-100519426D01*
X158633680Y-100258273D01*
X158476637Y-100023241D01*
X158398694Y-99945298D01*
X160298903Y-99945298D01*
X161112000Y-100758395D01*
X161925097Y-99945298D01*
X161853514Y-99701329D01*
X161598004Y-99580429D01*
X161323816Y-99511700D01*
X161041488Y-99497783D01*
X160761870Y-99539213D01*
X160495708Y-99634397D01*
X160370486Y-99701329D01*
X160298903Y-99945298D01*
X158398694Y-99945298D01*
X158276759Y-99823363D01*
X158041727Y-99666320D01*
X157780574Y-99558147D01*
X157503335Y-99503000D01*
X157220665Y-99503000D01*
X156943426Y-99558147D01*
X156682273Y-99666320D01*
X156526190Y-99770611D01*
X155290017Y-98534439D01*
X155297000Y-98499335D01*
X155297000Y-98216665D01*
X155241853Y-97939426D01*
X155133680Y-97678273D01*
X154976637Y-97443241D01*
X154776759Y-97243363D01*
X154541727Y-97086320D01*
X154280574Y-96978147D01*
X154003335Y-96923000D01*
X153720665Y-96923000D01*
X153448426Y-96977152D01*
X154457049Y-95968530D01*
X154490817Y-95940817D01*
X154601411Y-95806059D01*
X154683589Y-95652313D01*
X154734195Y-95485490D01*
X154747000Y-95355477D01*
X154747000Y-95355469D01*
X154751281Y-95312000D01*
X154747000Y-95268531D01*
X154747000Y-94492521D01*
X154776759Y-94472637D01*
X154976637Y-94272759D01*
X155133680Y-94037727D01*
X155241853Y-93776574D01*
X155297000Y-93499335D01*
X155297000Y-93216665D01*
X155290017Y-93181561D01*
X156526190Y-91945389D01*
X156682273Y-92049680D01*
X156943426Y-92157853D01*
X157220665Y-92213000D01*
X157503335Y-92213000D01*
X157538439Y-92206017D01*
X163977001Y-98644580D01*
X163977000Y-99803478D01*
X163947241Y-99823363D01*
X163747363Y-100023241D01*
X163590320Y-100258273D01*
X163482147Y-100519426D01*
X163427000Y-100796665D01*
X163427000Y-101079335D01*
X163482147Y-101356574D01*
X163590320Y-101617727D01*
X163747363Y-101852759D01*
X163947241Y-102052637D01*
X164182273Y-102209680D01*
X164443426Y-102317853D01*
X164720665Y-102373000D01*
X165003335Y-102373000D01*
X165280574Y-102317853D01*
X165541727Y-102209680D01*
X165776759Y-102052637D01*
X165976637Y-101852759D01*
X166133680Y-101617727D01*
X166241853Y-101356574D01*
X166297000Y-101079335D01*
X166297000Y-100796665D01*
X166241853Y-100519426D01*
X166133680Y-100258273D01*
X165976637Y-100023241D01*
X165776759Y-99823363D01*
X165747000Y-99803479D01*
X165747000Y-98321469D01*
X165751281Y-98278000D01*
X165747000Y-98234531D01*
X165747000Y-98234523D01*
X165734195Y-98104510D01*
X165683589Y-97937687D01*
X165601411Y-97783941D01*
X165546858Y-97717468D01*
X165518532Y-97682953D01*
X165518530Y-97682951D01*
X165490817Y-97649183D01*
X165457049Y-97621470D01*
X158790017Y-90954439D01*
X158797000Y-90919335D01*
X158797000Y-90636665D01*
X158741853Y-90359426D01*
X158633680Y-90098273D01*
X158476637Y-89863241D01*
X158276759Y-89663363D01*
X158041727Y-89506320D01*
X157780574Y-89398147D01*
X157503335Y-89343000D01*
X157220665Y-89343000D01*
X156943426Y-89398147D01*
X156682273Y-89506320D01*
X156447241Y-89663363D01*
X156247363Y-89863241D01*
X156206317Y-89924671D01*
X156101687Y-89956411D01*
X155947941Y-90038589D01*
X155947939Y-90038590D01*
X155947940Y-90038590D01*
X155846953Y-90121468D01*
X155846951Y-90121470D01*
X155813183Y-90149183D01*
X155785470Y-90182951D01*
X154038439Y-91929983D01*
X154003335Y-91923000D01*
X153720665Y-91923000D01*
X153443426Y-91978147D01*
X153182273Y-92086320D01*
X152947241Y-92243363D01*
X152747363Y-92443241D01*
X152590320Y-92678273D01*
X152482147Y-92939426D01*
X152427000Y-93216665D01*
X152427000Y-93499335D01*
X152482147Y-93776574D01*
X152590320Y-94037727D01*
X152747363Y-94272759D01*
X152947241Y-94472637D01*
X152977001Y-94492522D01*
X152977001Y-94945420D01*
X151689422Y-96233000D01*
X151392078Y-96233000D01*
X151281608Y-96098392D01*
X151063101Y-95919068D01*
X150930142Y-95848000D01*
X151063101Y-95776932D01*
X151281608Y-95597608D01*
X151460932Y-95379101D01*
X151594182Y-95129808D01*
X151676236Y-94859309D01*
X151703943Y-94578000D01*
X151676236Y-94296691D01*
X151594182Y-94026192D01*
X151460932Y-93776899D01*
X151281608Y-93558392D01*
X151063101Y-93379068D01*
X150935259Y-93310735D01*
X151164839Y-93160601D01*
X151366500Y-92962895D01*
X151525715Y-92729646D01*
X151636367Y-92469818D01*
X151653904Y-92387039D01*
X151531915Y-92165000D01*
X149989000Y-92165000D01*
X149989000Y-92185000D01*
X149735000Y-92185000D01*
X149735000Y-92165000D01*
X149715000Y-92165000D01*
X149715000Y-91911000D01*
X149735000Y-91911000D01*
X149735000Y-90603000D01*
X149989000Y-90603000D01*
X149989000Y-91911000D01*
X151531915Y-91911000D01*
X151653904Y-91688961D01*
X151636367Y-91606182D01*
X151525715Y-91346354D01*
X151366500Y-91113105D01*
X151164839Y-90915399D01*
X150928483Y-90760834D01*
X150666514Y-90655350D01*
X150389000Y-90603000D01*
X149989000Y-90603000D01*
X149735000Y-90603000D01*
X149335000Y-90603000D01*
X149057486Y-90655350D01*
X148795517Y-90760834D01*
X148559161Y-90915399D01*
X148357500Y-91113105D01*
X148198285Y-91346354D01*
X148087633Y-91606182D01*
X148070096Y-91688961D01*
X148113450Y-91767872D01*
X147788534Y-91442956D01*
X147760817Y-91409183D01*
X147626059Y-91298589D01*
X147472313Y-91216411D01*
X147305490Y-91165805D01*
X147175477Y-91153000D01*
X147175469Y-91153000D01*
X147132000Y-91148719D01*
X147088531Y-91153000D01*
X143772078Y-91153000D01*
X143661608Y-91018392D01*
X143443101Y-90839068D01*
X143193808Y-90705818D01*
X142923309Y-90623764D01*
X142712492Y-90603000D01*
X141771508Y-90603000D01*
X141560691Y-90623764D01*
X141290192Y-90705818D01*
X141044361Y-90837218D01*
X142283488Y-89598091D01*
X142335501Y-89619635D01*
X142684223Y-89689000D01*
X143039777Y-89689000D01*
X143388499Y-89619635D01*
X143716988Y-89483571D01*
X144012621Y-89286035D01*
X144264035Y-89034621D01*
X144461571Y-88738988D01*
X144497188Y-88653000D01*
X146226812Y-88653000D01*
X146262429Y-88738988D01*
X146459965Y-89034621D01*
X146711379Y-89286035D01*
X147007012Y-89483571D01*
X147335501Y-89619635D01*
X147684223Y-89689000D01*
X148039777Y-89689000D01*
X148388499Y-89619635D01*
X148716988Y-89483571D01*
X149012621Y-89286035D01*
X149264035Y-89034621D01*
X149461571Y-88738988D01*
X149597635Y-88410499D01*
X149667000Y-88061777D01*
X149667000Y-87706223D01*
X149642366Y-87582375D01*
X151477320Y-87582375D01*
X151477320Y-87953625D01*
X151549747Y-88317741D01*
X151691818Y-88660731D01*
X151898074Y-88969413D01*
X152160587Y-89231926D01*
X152469269Y-89438182D01*
X152812259Y-89580253D01*
X153176375Y-89652680D01*
X153547625Y-89652680D01*
X153911741Y-89580253D01*
X154254731Y-89438182D01*
X154563413Y-89231926D01*
X154825926Y-88969413D01*
X155032182Y-88660731D01*
X155035384Y-88653000D01*
X159227479Y-88653000D01*
X159247363Y-88682759D01*
X159447241Y-88882637D01*
X159682273Y-89039680D01*
X159943426Y-89147853D01*
X160220665Y-89203000D01*
X160227001Y-89203000D01*
X160227001Y-89643478D01*
X160197241Y-89663363D01*
X159997363Y-89863241D01*
X159840320Y-90098273D01*
X159732147Y-90359426D01*
X159677000Y-90636665D01*
X159677000Y-90919335D01*
X159732147Y-91196574D01*
X159840320Y-91457727D01*
X159997363Y-91692759D01*
X160197241Y-91892637D01*
X160432273Y-92049680D01*
X160693426Y-92157853D01*
X160970665Y-92213000D01*
X161253335Y-92213000D01*
X161530574Y-92157853D01*
X161791727Y-92049680D01*
X162026759Y-91892637D01*
X162226637Y-91692759D01*
X162383680Y-91457727D01*
X162491853Y-91196574D01*
X162547000Y-90919335D01*
X162547000Y-90636665D01*
X163427000Y-90636665D01*
X163427000Y-90919335D01*
X163482147Y-91196574D01*
X163590320Y-91457727D01*
X163747363Y-91692759D01*
X163947241Y-91892637D01*
X164182273Y-92049680D01*
X164443426Y-92157853D01*
X164720665Y-92213000D01*
X165003335Y-92213000D01*
X165280574Y-92157853D01*
X165541727Y-92049680D01*
X165776759Y-91892637D01*
X165976637Y-91692759D01*
X166133680Y-91457727D01*
X166241853Y-91196574D01*
X166297000Y-90919335D01*
X166297000Y-90636665D01*
X166241853Y-90359426D01*
X166133680Y-90098273D01*
X165976637Y-89863241D01*
X165776759Y-89663363D01*
X165747000Y-89643479D01*
X165747000Y-89154531D01*
X165780574Y-89147853D01*
X166041727Y-89039680D01*
X166276759Y-88882637D01*
X166476637Y-88682759D01*
X166633680Y-88447727D01*
X166741853Y-88186574D01*
X166797000Y-87909335D01*
X166797000Y-87626665D01*
X166741853Y-87349426D01*
X166633680Y-87088273D01*
X166476637Y-86853241D01*
X166276759Y-86653363D01*
X166041727Y-86496320D01*
X165780574Y-86388147D01*
X165503335Y-86333000D01*
X165220665Y-86333000D01*
X164943426Y-86388147D01*
X164682273Y-86496320D01*
X164447241Y-86653363D01*
X164247363Y-86853241D01*
X164090320Y-87088273D01*
X163982147Y-87349426D01*
X163927000Y-87626665D01*
X163927000Y-87909335D01*
X163981205Y-88181837D01*
X163972719Y-88268000D01*
X163977001Y-88311479D01*
X163977000Y-89643478D01*
X163947241Y-89663363D01*
X163747363Y-89863241D01*
X163590320Y-90098273D01*
X163482147Y-90359426D01*
X163427000Y-90636665D01*
X162547000Y-90636665D01*
X162491853Y-90359426D01*
X162383680Y-90098273D01*
X162226637Y-89863241D01*
X162026759Y-89663363D01*
X161997000Y-89643479D01*
X161997000Y-88561465D01*
X162001281Y-88517999D01*
X161997000Y-88474533D01*
X161997000Y-88474523D01*
X161984195Y-88344510D01*
X161933589Y-88177687D01*
X161851411Y-88023941D01*
X161793704Y-87953625D01*
X161789266Y-87948217D01*
X161797000Y-87909335D01*
X161797000Y-87626665D01*
X161741853Y-87349426D01*
X161633680Y-87088273D01*
X161476637Y-86853241D01*
X161276759Y-86653363D01*
X161041727Y-86496320D01*
X160780574Y-86388147D01*
X160503335Y-86333000D01*
X160220665Y-86333000D01*
X159943426Y-86388147D01*
X159682273Y-86496320D01*
X159447241Y-86653363D01*
X159247363Y-86853241D01*
X159227479Y-86883000D01*
X155035384Y-86883000D01*
X155032182Y-86875269D01*
X154825926Y-86566587D01*
X154563413Y-86304074D01*
X154254731Y-86097818D01*
X153911741Y-85955747D01*
X153547625Y-85883320D01*
X153176375Y-85883320D01*
X152812259Y-85955747D01*
X152469269Y-86097818D01*
X152160587Y-86304074D01*
X151898074Y-86566587D01*
X151691818Y-86875269D01*
X151549747Y-87218259D01*
X151477320Y-87582375D01*
X149642366Y-87582375D01*
X149597635Y-87357501D01*
X149461571Y-87029012D01*
X149264035Y-86733379D01*
X149012621Y-86481965D01*
X148716988Y-86284429D01*
X148388499Y-86148365D01*
X148039777Y-86079000D01*
X147684223Y-86079000D01*
X147335501Y-86148365D01*
X147007012Y-86284429D01*
X146711379Y-86481965D01*
X146459965Y-86733379D01*
X146359991Y-86883000D01*
X144364009Y-86883000D01*
X144264035Y-86733379D01*
X144012621Y-86481965D01*
X143716988Y-86284429D01*
X143388499Y-86148365D01*
X143039777Y-86079000D01*
X142684223Y-86079000D01*
X142335501Y-86148365D01*
X142007012Y-86284429D01*
X141711379Y-86481965D01*
X141459965Y-86733379D01*
X141262429Y-87029012D01*
X141126365Y-87357501D01*
X141057000Y-87706223D01*
X141057000Y-88061777D01*
X141100078Y-88278344D01*
X138266956Y-91111466D01*
X138233183Y-91139183D01*
X138122589Y-91273942D01*
X138040411Y-91427688D01*
X138005157Y-91543904D01*
X137989805Y-91594510D01*
X137988212Y-91610686D01*
X137977000Y-91724524D01*
X137977000Y-91724531D01*
X137972719Y-91768000D01*
X137977000Y-91811469D01*
X137977000Y-92223479D01*
X137947241Y-92243363D01*
X137747363Y-92443241D01*
X137590320Y-92678273D01*
X137482147Y-92939426D01*
X137427000Y-93216665D01*
X137427000Y-93499335D01*
X137482147Y-93776574D01*
X137590320Y-94037727D01*
X137747363Y-94272759D01*
X137947241Y-94472637D01*
X138182273Y-94629680D01*
X138443426Y-94737853D01*
X138720665Y-94793000D01*
X139003335Y-94793000D01*
X139038439Y-94786017D01*
X139425468Y-95173047D01*
X139453183Y-95206817D01*
X139486951Y-95234530D01*
X139486953Y-95234532D01*
X139587941Y-95317411D01*
X139741686Y-95399589D01*
X139901643Y-95448112D01*
X139908510Y-95450195D01*
X140038523Y-95463000D01*
X140038531Y-95463000D01*
X140082000Y-95467281D01*
X140125469Y-95463000D01*
X140711922Y-95463000D01*
X140822392Y-95597608D01*
X141040899Y-95776932D01*
X141173858Y-95848000D01*
X141040899Y-95919068D01*
X140822392Y-96098392D01*
X140711922Y-96233000D01*
X140145469Y-96233000D01*
X140102000Y-96228719D01*
X140058531Y-96233000D01*
X140058523Y-96233000D01*
X139928510Y-96245805D01*
X139761687Y-96296411D01*
X139710629Y-96323702D01*
X139607941Y-96378589D01*
X139506953Y-96461468D01*
X139506951Y-96461470D01*
X139473183Y-96489183D01*
X139445470Y-96522951D01*
X139038439Y-96929983D01*
X139003335Y-96923000D01*
X138720665Y-96923000D01*
X138443426Y-96978147D01*
X138182273Y-97086320D01*
X137947241Y-97243363D01*
X137747363Y-97443241D01*
X137590320Y-97678273D01*
X137482147Y-97939426D01*
X137427000Y-98216665D01*
X137427000Y-98499335D01*
X137436637Y-98547784D01*
X136207402Y-99777020D01*
X136041727Y-99666320D01*
X135780574Y-99558147D01*
X135503335Y-99503000D01*
X135220665Y-99503000D01*
X135185561Y-99509983D01*
X132143646Y-96468068D01*
X132115929Y-96434295D01*
X131981171Y-96323701D01*
X131827425Y-96241523D01*
X131797038Y-96232305D01*
X131787812Y-96138630D01*
X131751502Y-96018932D01*
X131692537Y-95908618D01*
X131613185Y-95811927D01*
X131516494Y-95732575D01*
X131406180Y-95673610D01*
X131310057Y-95644451D01*
X131476637Y-95477871D01*
X131633680Y-95242839D01*
X131741853Y-94981686D01*
X131797000Y-94704447D01*
X131797000Y-94421777D01*
X131741853Y-94144538D01*
X131633680Y-93883385D01*
X131476637Y-93648353D01*
X131276759Y-93448475D01*
X131041727Y-93291432D01*
X130780574Y-93183259D01*
X130503335Y-93128112D01*
X130220665Y-93128112D01*
X129943426Y-93183259D01*
X129682273Y-93291432D01*
X129447241Y-93448475D01*
X129247363Y-93648353D01*
X129090320Y-93883385D01*
X129074180Y-93922351D01*
X129059626Y-93934295D01*
X129031913Y-93968063D01*
X125639870Y-97360107D01*
X125683589Y-97278313D01*
X125734195Y-97111490D01*
X125747000Y-96981477D01*
X125747000Y-96981467D01*
X125751281Y-96938001D01*
X125747000Y-96894535D01*
X125747000Y-91912521D01*
X125776759Y-91892637D01*
X125976637Y-91692759D01*
X126133680Y-91457727D01*
X126241853Y-91196574D01*
X126297000Y-90919335D01*
X126297000Y-90636665D01*
X133927000Y-90636665D01*
X133927000Y-90919335D01*
X133982147Y-91196574D01*
X134090320Y-91457727D01*
X134247363Y-91692759D01*
X134447241Y-91892637D01*
X134682273Y-92049680D01*
X134943426Y-92157853D01*
X135220665Y-92213000D01*
X135503335Y-92213000D01*
X135780574Y-92157853D01*
X136041727Y-92049680D01*
X136276759Y-91892637D01*
X136476637Y-91692759D01*
X136633680Y-91457727D01*
X136741853Y-91196574D01*
X136797000Y-90919335D01*
X136797000Y-90636665D01*
X136741853Y-90359426D01*
X136677504Y-90204074D01*
X137283488Y-89598091D01*
X137335501Y-89619635D01*
X137684223Y-89689000D01*
X138039777Y-89689000D01*
X138388499Y-89619635D01*
X138716988Y-89483571D01*
X139012621Y-89286035D01*
X139264035Y-89034621D01*
X139461571Y-88738988D01*
X139597635Y-88410499D01*
X139667000Y-88061777D01*
X139667000Y-87706223D01*
X139597635Y-87357501D01*
X139461571Y-87029012D01*
X139264035Y-86733379D01*
X139012621Y-86481965D01*
X138716988Y-86284429D01*
X138388499Y-86148365D01*
X138039777Y-86079000D01*
X137684223Y-86079000D01*
X137335501Y-86148365D01*
X137007012Y-86284429D01*
X136711379Y-86481965D01*
X136459965Y-86733379D01*
X136262429Y-87029012D01*
X136126365Y-87357501D01*
X136057000Y-87706223D01*
X136057000Y-88061777D01*
X136100078Y-88278344D01*
X134989425Y-89388997D01*
X134943426Y-89398147D01*
X134682273Y-89506320D01*
X134447241Y-89663363D01*
X134247363Y-89863241D01*
X134090320Y-90098273D01*
X133982147Y-90359426D01*
X133927000Y-90636665D01*
X126297000Y-90636665D01*
X126288358Y-90593220D01*
X127304528Y-89577051D01*
X127312259Y-89580253D01*
X127676375Y-89652680D01*
X128047625Y-89652680D01*
X128411741Y-89580253D01*
X128754731Y-89438182D01*
X129063413Y-89231926D01*
X129325926Y-88969413D01*
X129532182Y-88660731D01*
X129674253Y-88317741D01*
X129746680Y-87953625D01*
X129746680Y-87582375D01*
X129674253Y-87218259D01*
X129532182Y-86875269D01*
X129325926Y-86566587D01*
X129063413Y-86304074D01*
X128754731Y-86097818D01*
X128411741Y-85955747D01*
X128047625Y-85883320D01*
X127676375Y-85883320D01*
X127312259Y-85955747D01*
X126969269Y-86097818D01*
X126660587Y-86304074D01*
X126398074Y-86566587D01*
X126191818Y-86875269D01*
X126049747Y-87218259D01*
X125977320Y-87582375D01*
X125977320Y-87953625D01*
X126049747Y-88317741D01*
X126052949Y-88325472D01*
X125030098Y-89348324D01*
X125003335Y-89343000D01*
X124720665Y-89343000D01*
X124443426Y-89398147D01*
X124182273Y-89506320D01*
X123947241Y-89663363D01*
X123747363Y-89863241D01*
X123590320Y-90098273D01*
X123482147Y-90359426D01*
X123427000Y-90636665D01*
X123427000Y-90919335D01*
X123482147Y-91196574D01*
X123590320Y-91457727D01*
X123747363Y-91692759D01*
X123947241Y-91892637D01*
X123977000Y-91912521D01*
X123977001Y-96571420D01*
X121038439Y-99509983D01*
X121003335Y-99503000D01*
X120720665Y-99503000D01*
X120443426Y-99558147D01*
X120182273Y-99666320D01*
X119947241Y-99823363D01*
X119747363Y-100023241D01*
X119590320Y-100258273D01*
X119482147Y-100519426D01*
X119427000Y-100796665D01*
X118173000Y-100796665D01*
X118173000Y-91770702D01*
X120048903Y-91770702D01*
X120120486Y-92014671D01*
X120375996Y-92135571D01*
X120650184Y-92204300D01*
X120932512Y-92218217D01*
X121212130Y-92176787D01*
X121478292Y-92081603D01*
X121603514Y-92014671D01*
X121675097Y-91770702D01*
X120862000Y-90957605D01*
X120048903Y-91770702D01*
X118173000Y-91770702D01*
X118173000Y-90848512D01*
X119421783Y-90848512D01*
X119463213Y-91128130D01*
X119558397Y-91394292D01*
X119625329Y-91519514D01*
X119869298Y-91591097D01*
X120682395Y-90778000D01*
X121041605Y-90778000D01*
X121854702Y-91591097D01*
X122098671Y-91519514D01*
X122219571Y-91264004D01*
X122288300Y-90989816D01*
X122302217Y-90707488D01*
X122260787Y-90427870D01*
X122165603Y-90161708D01*
X122098671Y-90036486D01*
X121854702Y-89964903D01*
X121041605Y-90778000D01*
X120682395Y-90778000D01*
X119869298Y-89964903D01*
X119625329Y-90036486D01*
X119504429Y-90291996D01*
X119435700Y-90566184D01*
X119421783Y-90848512D01*
X118173000Y-90848512D01*
X118173000Y-89785298D01*
X120048903Y-89785298D01*
X120862000Y-90598395D01*
X121675097Y-89785298D01*
X121603514Y-89541329D01*
X121348004Y-89420429D01*
X121073816Y-89351700D01*
X120791488Y-89337783D01*
X120511870Y-89379213D01*
X120245708Y-89474397D01*
X120120486Y-89541329D01*
X120048903Y-89785298D01*
X118173000Y-89785298D01*
X118173000Y-85806388D01*
X118199832Y-85532740D01*
X118268158Y-85306432D01*
X118379137Y-85097712D01*
X118528544Y-84914522D01*
X118710688Y-84763838D01*
X118918624Y-84651408D01*
X119144447Y-84581504D01*
X119415647Y-84553000D01*
X166349612Y-84553000D01*
X166623260Y-84579832D01*
G37*
X166623260Y-84579832D02*
X166849568Y-84648158D01*
X167058288Y-84759137D01*
X167241478Y-84908544D01*
X167392162Y-85090688D01*
X167504592Y-85298624D01*
X167574496Y-85524447D01*
X167586212Y-85635921D01*
X167577001Y-85729439D01*
X167577000Y-110806560D01*
X167586248Y-110900457D01*
X167576168Y-111003262D01*
X167507843Y-111229565D01*
X167396864Y-111438288D01*
X167247458Y-111621477D01*
X167065314Y-111772159D01*
X166857377Y-111884591D01*
X166631552Y-111954496D01*
X166360353Y-111983000D01*
X119426388Y-111983000D01*
X119152738Y-111956168D01*
X118926435Y-111887843D01*
X118717712Y-111776864D01*
X118534523Y-111627458D01*
X118383841Y-111445314D01*
X118271409Y-111237377D01*
X118201504Y-111011552D01*
X118173000Y-110740353D01*
X118173000Y-110081377D01*
X119978229Y-110081377D01*
X120104104Y-110371315D01*
X120436262Y-110537139D01*
X120794387Y-110634975D01*
X121164719Y-110661065D01*
X121533025Y-110614405D01*
X121885151Y-110496789D01*
X122119896Y-110371315D01*
X122245771Y-110081377D01*
X121112000Y-108947605D01*
X119978229Y-110081377D01*
X118173000Y-110081377D01*
X118173000Y-108820719D01*
X119218935Y-108820719D01*
X119265595Y-109189025D01*
X119383211Y-109541151D01*
X119508685Y-109775896D01*
X119798623Y-109901771D01*
X120932395Y-108768000D01*
X121291605Y-108768000D01*
X122425377Y-109901771D01*
X122715315Y-109775896D01*
X122881139Y-109443738D01*
X122978975Y-109085613D01*
X123005065Y-108715281D01*
X122958405Y-108346975D01*
X122840789Y-107994849D01*
X122715315Y-107760104D01*
X122425377Y-107634229D01*
X121291605Y-108768000D01*
X120932395Y-108768000D01*
X119798623Y-107634229D01*
X119508685Y-107760104D01*
X119342861Y-108092262D01*
X119245025Y-108450387D01*
X119218935Y-108820719D01*
X118173000Y-108820719D01*
X118173000Y-107454623D01*
X119978229Y-107454623D01*
X121112000Y-108588395D01*
X122245771Y-107454623D01*
X122119896Y-107164685D01*
X121787738Y-106998861D01*
X121429613Y-106901025D01*
X121059281Y-106874935D01*
X120690975Y-106921595D01*
X120338849Y-107039211D01*
X120104104Y-107164685D01*
X119978229Y-107454623D01*
X118173000Y-107454623D01*
X118173000Y-100796665D01*
X119427000Y-100796665D01*
X119427000Y-101079335D01*
X119482147Y-101356574D01*
X119590320Y-101617727D01*
X119747363Y-101852759D01*
X119947241Y-102052637D01*
X120182273Y-102209680D01*
X120443426Y-102317853D01*
X120720665Y-102373000D01*
X121003335Y-102373000D01*
X121280574Y-102317853D01*
X121541727Y-102209680D01*
X121776759Y-102052637D01*
X121976637Y-101852759D01*
X122133680Y-101617727D01*
X122241853Y-101356574D01*
X122297000Y-101079335D01*
X122297000Y-100796665D01*
X122290017Y-100761561D01*
X124084131Y-98967448D01*
X124040411Y-99049243D01*
X123989805Y-99216066D01*
X123977000Y-99346079D01*
X123977000Y-99346086D01*
X123972719Y-99389555D01*
X123977000Y-99433024D01*
X123977000Y-99803479D01*
X123947241Y-99823363D01*
X123747363Y-100023241D01*
X123590320Y-100258273D01*
X123482147Y-100519426D01*
X123427000Y-100796665D01*
X123427000Y-101079335D01*
X123482147Y-101356574D01*
X123590320Y-101617727D01*
X123747363Y-101852759D01*
X123947241Y-102052637D01*
X124182273Y-102209680D01*
X124443426Y-102317853D01*
X124720665Y-102373000D01*
X125003335Y-102373000D01*
X125280574Y-102317853D01*
X125541727Y-102209680D01*
X125776759Y-102052637D01*
X125976637Y-101852759D01*
X126133680Y-101617727D01*
X126241853Y-101356574D01*
X126297000Y-101079335D01*
X126297000Y-100796665D01*
X126241853Y-100519426D01*
X126133680Y-100258273D01*
X125976637Y-100023241D01*
X125776759Y-99823363D01*
X125747000Y-99803479D01*
X125747000Y-99756133D01*
X128923928Y-96579206D01*
X128923928Y-97863112D01*
X128936188Y-97987594D01*
X128972498Y-98107292D01*
X129031463Y-98217606D01*
X129110815Y-98314297D01*
X129207506Y-98393649D01*
X129317820Y-98452614D01*
X129437518Y-98488924D01*
X129562000Y-98501184D01*
X131162000Y-98501184D01*
X131286482Y-98488924D01*
X131406180Y-98452614D01*
X131516494Y-98393649D01*
X131543724Y-98371302D01*
X133933983Y-100761561D01*
X133927000Y-100796665D01*
X133927000Y-101079335D01*
X133982147Y-101356574D01*
X134090320Y-101617727D01*
X134247363Y-101852759D01*
X134447241Y-102052637D01*
X134682273Y-102209680D01*
X134943426Y-102317853D01*
X135220665Y-102373000D01*
X135503335Y-102373000D01*
X135780574Y-102317853D01*
X136041727Y-102209680D01*
X136276759Y-102052637D01*
X136476637Y-101852759D01*
X136513616Y-101797416D01*
X136638313Y-101759589D01*
X136792059Y-101677411D01*
X136926817Y-101566817D01*
X136954534Y-101533044D01*
X138698907Y-99788672D01*
X138720665Y-99793000D01*
X139003335Y-99793000D01*
X139280574Y-99737853D01*
X139541727Y-99629680D01*
X139776759Y-99472637D01*
X139976637Y-99272759D01*
X140133680Y-99037727D01*
X140241853Y-98776574D01*
X140297000Y-98499335D01*
X140297000Y-98216665D01*
X140290017Y-98181561D01*
X140468579Y-98003000D01*
X140711922Y-98003000D01*
X140822392Y-98137608D01*
X141040899Y-98316932D01*
X141173858Y-98388000D01*
X141040899Y-98459068D01*
X140822392Y-98638392D01*
X140643068Y-98856899D01*
X140509818Y-99106192D01*
X140432133Y-99362288D01*
X134411422Y-105383000D01*
X131996521Y-105383000D01*
X131976637Y-105353241D01*
X131776759Y-105153363D01*
X131541727Y-104996320D01*
X131280574Y-104888147D01*
X131003335Y-104833000D01*
X130720665Y-104833000D01*
X130443426Y-104888147D01*
X130182273Y-104996320D01*
X129947241Y-105153363D01*
X129747363Y-105353241D01*
X129727479Y-105383000D01*
X129155469Y-105383000D01*
X129112000Y-105378719D01*
X129068531Y-105383000D01*
X129068523Y-105383000D01*
X128938510Y-105395805D01*
X128771687Y-105446411D01*
X128617941Y-105528589D01*
X128516953Y-105611468D01*
X128516951Y-105611470D01*
X128483183Y-105639183D01*
X128455470Y-105672951D01*
X126782850Y-107345571D01*
X126761182Y-107274140D01*
X126702217Y-107163826D01*
X126622865Y-107067135D01*
X126526174Y-106987783D01*
X126415860Y-106928818D01*
X126296162Y-106892508D01*
X126171680Y-106880248D01*
X123672320Y-106880248D01*
X123547838Y-106892508D01*
X123428140Y-106928818D01*
X123317826Y-106987783D01*
X123221135Y-107067135D01*
X123141783Y-107163826D01*
X123082818Y-107274140D01*
X123046508Y-107393838D01*
X123034248Y-107518320D01*
X123034248Y-110017680D01*
X123046508Y-110142162D01*
X123082818Y-110261860D01*
X123141783Y-110372174D01*
X123221135Y-110468865D01*
X123317826Y-110548217D01*
X123428140Y-110607182D01*
X123547838Y-110643492D01*
X123672320Y-110655752D01*
X126171680Y-110655752D01*
X126296162Y-110643492D01*
X126415860Y-110607182D01*
X126526174Y-110548217D01*
X126622865Y-110468865D01*
X126702217Y-110372174D01*
X126761182Y-110261860D01*
X126797492Y-110142162D01*
X126809752Y-110017680D01*
X126809752Y-109760702D01*
X145223903Y-109760702D01*
X145295486Y-110004671D01*
X145550996Y-110125571D01*
X145825184Y-110194300D01*
X146107512Y-110208217D01*
X146387130Y-110166787D01*
X146653292Y-110071603D01*
X146778514Y-110004671D01*
X146850097Y-109760702D01*
X146037000Y-108947605D01*
X145223903Y-109760702D01*
X126809752Y-109760702D01*
X126809752Y-109632835D01*
X126952313Y-109589589D01*
X127106059Y-109507411D01*
X127240817Y-109396817D01*
X127268534Y-109363044D01*
X127793066Y-108838512D01*
X144596783Y-108838512D01*
X144638213Y-109118130D01*
X144733397Y-109384292D01*
X144800329Y-109509514D01*
X145044298Y-109581097D01*
X145857395Y-108768000D01*
X146216605Y-108768000D01*
X147029702Y-109581097D01*
X147273671Y-109509514D01*
X147394571Y-109254004D01*
X147463300Y-108979816D01*
X147477217Y-108697488D01*
X147435787Y-108417870D01*
X147340603Y-108151708D01*
X147273671Y-108026486D01*
X147029702Y-107954903D01*
X146216605Y-108768000D01*
X145857395Y-108768000D01*
X145044298Y-107954903D01*
X144800329Y-108026486D01*
X144679429Y-108281996D01*
X144610700Y-108556184D01*
X144596783Y-108838512D01*
X127793066Y-108838512D01*
X129478579Y-107153000D01*
X129727479Y-107153000D01*
X129747363Y-107182759D01*
X129947241Y-107382637D01*
X130182273Y-107539680D01*
X130443426Y-107647853D01*
X130720665Y-107703000D01*
X131003335Y-107703000D01*
X131280574Y-107647853D01*
X131541727Y-107539680D01*
X131776759Y-107382637D01*
X131976637Y-107182759D01*
X131996521Y-107153000D01*
X134734531Y-107153000D01*
X134778000Y-107157281D01*
X134821469Y-107153000D01*
X134821477Y-107153000D01*
X134951490Y-107140195D01*
X135118313Y-107089589D01*
X135272059Y-107007411D01*
X135406817Y-106896817D01*
X135434534Y-106863044D01*
X139547100Y-102750478D01*
X139522000Y-102876665D01*
X139522000Y-103159335D01*
X139577147Y-103436574D01*
X139685320Y-103697727D01*
X139842363Y-103932759D01*
X140042241Y-104132637D01*
X140277273Y-104289680D01*
X140538426Y-104397853D01*
X140815665Y-104453000D01*
X141098335Y-104453000D01*
X141375574Y-104397853D01*
X141636727Y-104289680D01*
X141871759Y-104132637D01*
X142071637Y-103932759D01*
X142091521Y-103903000D01*
X143068531Y-103903000D01*
X143112000Y-103907281D01*
X143155469Y-103903000D01*
X143155477Y-103903000D01*
X143285490Y-103890195D01*
X143452313Y-103839589D01*
X143606059Y-103757411D01*
X143740817Y-103646817D01*
X143768534Y-103613044D01*
X145152000Y-102229578D01*
X145152000Y-104838299D01*
X145112518Y-104842188D01*
X144992820Y-104878498D01*
X144882506Y-104937463D01*
X144785815Y-105016815D01*
X144706463Y-105113506D01*
X144647498Y-105223820D01*
X144611188Y-105343518D01*
X144607299Y-105383000D01*
X142156521Y-105383000D01*
X142136637Y-105353241D01*
X141936759Y-105153363D01*
X141701727Y-104996320D01*
X141440574Y-104888147D01*
X141163335Y-104833000D01*
X140880665Y-104833000D01*
X140603426Y-104888147D01*
X140342273Y-104996320D01*
X140107241Y-105153363D01*
X139907363Y-105353241D01*
X139750320Y-105588273D01*
X139642147Y-105849426D01*
X139587000Y-106126665D01*
X139587000Y-106409335D01*
X139642147Y-106686574D01*
X139750320Y-106947727D01*
X139907363Y-107182759D01*
X140107241Y-107382637D01*
X140342273Y-107539680D01*
X140603426Y-107647853D01*
X140880665Y-107703000D01*
X141163335Y-107703000D01*
X141440574Y-107647853D01*
X141701727Y-107539680D01*
X141936759Y-107382637D01*
X142136637Y-107182759D01*
X142156521Y-107153000D01*
X144607299Y-107153000D01*
X144611188Y-107192482D01*
X144647498Y-107312180D01*
X144706463Y-107422494D01*
X144785815Y-107519185D01*
X144882506Y-107598537D01*
X144992820Y-107657502D01*
X145112518Y-107693812D01*
X145237000Y-107706072D01*
X145244215Y-107706072D01*
X145223903Y-107775298D01*
X146037000Y-108588395D01*
X146850097Y-107775298D01*
X146829785Y-107706072D01*
X146837000Y-107706072D01*
X146961482Y-107693812D01*
X147081180Y-107657502D01*
X147191494Y-107598537D01*
X147288185Y-107519185D01*
X147367537Y-107422494D01*
X147426502Y-107312180D01*
X147462812Y-107192482D01*
X147466701Y-107153000D01*
X149977479Y-107153000D01*
X149997363Y-107182759D01*
X150197241Y-107382637D01*
X150432273Y-107539680D01*
X150693426Y-107647853D01*
X150970665Y-107703000D01*
X151253335Y-107703000D01*
X151530574Y-107647853D01*
X151791727Y-107539680D01*
X152026759Y-107382637D01*
X152226637Y-107182759D01*
X152383680Y-106947727D01*
X152491853Y-106686574D01*
X152505684Y-106617039D01*
X159880096Y-106617039D01*
X159920754Y-106751087D01*
X160040963Y-107005420D01*
X160208481Y-107231414D01*
X160416869Y-107420385D01*
X160658119Y-107565070D01*
X160922960Y-107659909D01*
X161145000Y-107538624D01*
X161145000Y-106395000D01*
X161399000Y-106395000D01*
X161399000Y-107538624D01*
X161621040Y-107659909D01*
X161885881Y-107565070D01*
X162127131Y-107420385D01*
X162335519Y-107231414D01*
X162503037Y-107005420D01*
X162623246Y-106751087D01*
X162663904Y-106617039D01*
X162541915Y-106395000D01*
X161399000Y-106395000D01*
X161145000Y-106395000D01*
X160002085Y-106395000D01*
X159880096Y-106617039D01*
X152505684Y-106617039D01*
X152547000Y-106409335D01*
X152547000Y-106126665D01*
X152505685Y-105918961D01*
X159880096Y-105918961D01*
X160002085Y-106141000D01*
X161145000Y-106141000D01*
X161145000Y-104997376D01*
X161399000Y-104997376D01*
X161399000Y-106141000D01*
X162541915Y-106141000D01*
X162663904Y-105918961D01*
X162623246Y-105784913D01*
X162503037Y-105530580D01*
X162335519Y-105304586D01*
X162127131Y-105115615D01*
X161885881Y-104970930D01*
X161621040Y-104876091D01*
X161399000Y-104997376D01*
X161145000Y-104997376D01*
X160922960Y-104876091D01*
X160658119Y-104970930D01*
X160416869Y-105115615D01*
X160208481Y-105304586D01*
X160040963Y-105530580D01*
X159920754Y-105784913D01*
X159880096Y-105918961D01*
X152505685Y-105918961D01*
X152491853Y-105849426D01*
X152383680Y-105588273D01*
X152226637Y-105353241D01*
X152026759Y-105153363D01*
X151791727Y-104996320D01*
X151530574Y-104888147D01*
X151253335Y-104833000D01*
X150970665Y-104833000D01*
X150693426Y-104888147D01*
X150432273Y-104996320D01*
X150197241Y-105153363D01*
X149997363Y-105353241D01*
X149977479Y-105383000D01*
X147466701Y-105383000D01*
X147462812Y-105343518D01*
X147426502Y-105223820D01*
X147367537Y-105113506D01*
X147288185Y-105016815D01*
X147191494Y-104937463D01*
X147081180Y-104878498D01*
X146961482Y-104842188D01*
X146922000Y-104838299D01*
X146922000Y-98459578D01*
X148041892Y-97339687D01*
X148047764Y-97399309D01*
X148129818Y-97669808D01*
X148263068Y-97919101D01*
X148442392Y-98137608D01*
X148555482Y-98230419D01*
X148537518Y-98232188D01*
X148417820Y-98268498D01*
X148307506Y-98327463D01*
X148210815Y-98406815D01*
X148131463Y-98503506D01*
X148072498Y-98613820D01*
X148036188Y-98733518D01*
X148023928Y-98858000D01*
X148023928Y-100458000D01*
X148036188Y-100582482D01*
X148072498Y-100702180D01*
X148131463Y-100812494D01*
X148210815Y-100909185D01*
X148307506Y-100988537D01*
X148417820Y-101047502D01*
X148537518Y-101083812D01*
X148662000Y-101096072D01*
X148977001Y-101096072D01*
X148977001Y-101719521D01*
X148972719Y-101763000D01*
X148989805Y-101936490D01*
X149040412Y-102103313D01*
X149122590Y-102257059D01*
X149205468Y-102358046D01*
X149205471Y-102358049D01*
X149233184Y-102391817D01*
X149266951Y-102419529D01*
X149688983Y-102841561D01*
X149682000Y-102876665D01*
X149682000Y-103159335D01*
X149737147Y-103436574D01*
X149845320Y-103697727D01*
X150002363Y-103932759D01*
X150202241Y-104132637D01*
X150437273Y-104289680D01*
X150698426Y-104397853D01*
X150975665Y-104453000D01*
X151258335Y-104453000D01*
X151535574Y-104397853D01*
X151796727Y-104289680D01*
X152031759Y-104132637D01*
X152231637Y-103932759D01*
X152388680Y-103697727D01*
X152496853Y-103436574D01*
X152552000Y-103159335D01*
X152552000Y-102876665D01*
X152496853Y-102599426D01*
X152388680Y-102338273D01*
X152231637Y-102103241D01*
X152031759Y-101903363D01*
X151796727Y-101746320D01*
X151535574Y-101638147D01*
X151258335Y-101583000D01*
X150975665Y-101583000D01*
X150940561Y-101589983D01*
X150747000Y-101396422D01*
X150747000Y-101096072D01*
X151062000Y-101096072D01*
X151186482Y-101083812D01*
X151306180Y-101047502D01*
X151416494Y-100988537D01*
X151513185Y-100909185D01*
X151592537Y-100812494D01*
X151651502Y-100702180D01*
X151687812Y-100582482D01*
X151691701Y-100543000D01*
X152518531Y-100543000D01*
X152562000Y-100547281D01*
X152605469Y-100543000D01*
X152605477Y-100543000D01*
X152735490Y-100530195D01*
X152902313Y-100479589D01*
X153056059Y-100397411D01*
X153190817Y-100286817D01*
X153218534Y-100253044D01*
X153685561Y-99786017D01*
X153720665Y-99793000D01*
X154003335Y-99793000D01*
X154038439Y-99786017D01*
X155785470Y-101533049D01*
X155813183Y-101566817D01*
X155846951Y-101594530D01*
X155846953Y-101594532D01*
X155875216Y-101617727D01*
X155947941Y-101677411D01*
X156101687Y-101759589D01*
X156206317Y-101791329D01*
X156247363Y-101852759D01*
X156447241Y-102052637D01*
X156682273Y-102209680D01*
X156943426Y-102317853D01*
X157220665Y-102373000D01*
X157503335Y-102373000D01*
X157780574Y-102317853D01*
X158041727Y-102209680D01*
X158276759Y-102052637D01*
X158398694Y-101930702D01*
X160298903Y-101930702D01*
X160370486Y-102174671D01*
X160625996Y-102295571D01*
X160900184Y-102364300D01*
X161182512Y-102378217D01*
X161462130Y-102336787D01*
X161728292Y-102241603D01*
X161853514Y-102174671D01*
X161925097Y-101930702D01*
X161112000Y-101117605D01*
X160298903Y-101930702D01*
X158398694Y-101930702D01*
X158476637Y-101852759D01*
X158633680Y-101617727D01*
X158741853Y-101356574D01*
X158797000Y-101079335D01*
X158797000Y-101008512D01*
X159671783Y-101008512D01*
X159713213Y-101288130D01*
X159808397Y-101554292D01*
X159875329Y-101679514D01*
X160119298Y-101751097D01*
X160932395Y-100938000D01*
X161291605Y-100938000D01*
X162104702Y-101751097D01*
X162348671Y-101679514D01*
X162469571Y-101424004D01*
X162538300Y-101149816D01*
X162552217Y-100867488D01*
X162510787Y-100587870D01*
X162415603Y-100321708D01*
X162348671Y-100196486D01*
X162104702Y-100124903D01*
X161291605Y-100938000D01*
X160932395Y-100938000D01*
X160119298Y-100124903D01*
X159875329Y-100196486D01*
X159754429Y-100451996D01*
X159685700Y-100726184D01*
X159671783Y-101008512D01*
X158797000Y-101008512D01*
X158797000Y-100796665D01*
X158741853Y-100519426D01*
X158633680Y-100258273D01*
X158476637Y-100023241D01*
X158398694Y-99945298D01*
X160298903Y-99945298D01*
X161112000Y-100758395D01*
X161925097Y-99945298D01*
X161853514Y-99701329D01*
X161598004Y-99580429D01*
X161323816Y-99511700D01*
X161041488Y-99497783D01*
X160761870Y-99539213D01*
X160495708Y-99634397D01*
X160370486Y-99701329D01*
X160298903Y-99945298D01*
X158398694Y-99945298D01*
X158276759Y-99823363D01*
X158041727Y-99666320D01*
X157780574Y-99558147D01*
X157503335Y-99503000D01*
X157220665Y-99503000D01*
X156943426Y-99558147D01*
X156682273Y-99666320D01*
X156526190Y-99770611D01*
X155290017Y-98534439D01*
X155297000Y-98499335D01*
X155297000Y-98216665D01*
X155241853Y-97939426D01*
X155133680Y-97678273D01*
X154976637Y-97443241D01*
X154776759Y-97243363D01*
X154541727Y-97086320D01*
X154280574Y-96978147D01*
X154003335Y-96923000D01*
X153720665Y-96923000D01*
X153448426Y-96977152D01*
X154457049Y-95968530D01*
X154490817Y-95940817D01*
X154601411Y-95806059D01*
X154683589Y-95652313D01*
X154734195Y-95485490D01*
X154747000Y-95355477D01*
X154747000Y-95355469D01*
X154751281Y-95312000D01*
X154747000Y-95268531D01*
X154747000Y-94492521D01*
X154776759Y-94472637D01*
X154976637Y-94272759D01*
X155133680Y-94037727D01*
X155241853Y-93776574D01*
X155297000Y-93499335D01*
X155297000Y-93216665D01*
X155290017Y-93181561D01*
X156526190Y-91945389D01*
X156682273Y-92049680D01*
X156943426Y-92157853D01*
X157220665Y-92213000D01*
X157503335Y-92213000D01*
X157538439Y-92206017D01*
X163977001Y-98644580D01*
X163977000Y-99803478D01*
X163947241Y-99823363D01*
X163747363Y-100023241D01*
X163590320Y-100258273D01*
X163482147Y-100519426D01*
X163427000Y-100796665D01*
X163427000Y-101079335D01*
X163482147Y-101356574D01*
X163590320Y-101617727D01*
X163747363Y-101852759D01*
X163947241Y-102052637D01*
X164182273Y-102209680D01*
X164443426Y-102317853D01*
X164720665Y-102373000D01*
X165003335Y-102373000D01*
X165280574Y-102317853D01*
X165541727Y-102209680D01*
X165776759Y-102052637D01*
X165976637Y-101852759D01*
X166133680Y-101617727D01*
X166241853Y-101356574D01*
X166297000Y-101079335D01*
X166297000Y-100796665D01*
X166241853Y-100519426D01*
X166133680Y-100258273D01*
X165976637Y-100023241D01*
X165776759Y-99823363D01*
X165747000Y-99803479D01*
X165747000Y-98321469D01*
X165751281Y-98278000D01*
X165747000Y-98234531D01*
X165747000Y-98234523D01*
X165734195Y-98104510D01*
X165683589Y-97937687D01*
X165601411Y-97783941D01*
X165546858Y-97717468D01*
X165518532Y-97682953D01*
X165518530Y-97682951D01*
X165490817Y-97649183D01*
X165457049Y-97621470D01*
X158790017Y-90954439D01*
X158797000Y-90919335D01*
X158797000Y-90636665D01*
X158741853Y-90359426D01*
X158633680Y-90098273D01*
X158476637Y-89863241D01*
X158276759Y-89663363D01*
X158041727Y-89506320D01*
X157780574Y-89398147D01*
X157503335Y-89343000D01*
X157220665Y-89343000D01*
X156943426Y-89398147D01*
X156682273Y-89506320D01*
X156447241Y-89663363D01*
X156247363Y-89863241D01*
X156206317Y-89924671D01*
X156101687Y-89956411D01*
X155947941Y-90038589D01*
X155947939Y-90038590D01*
X155947940Y-90038590D01*
X155846953Y-90121468D01*
X155846951Y-90121470D01*
X155813183Y-90149183D01*
X155785470Y-90182951D01*
X154038439Y-91929983D01*
X154003335Y-91923000D01*
X153720665Y-91923000D01*
X153443426Y-91978147D01*
X153182273Y-92086320D01*
X152947241Y-92243363D01*
X152747363Y-92443241D01*
X152590320Y-92678273D01*
X152482147Y-92939426D01*
X152427000Y-93216665D01*
X152427000Y-93499335D01*
X152482147Y-93776574D01*
X152590320Y-94037727D01*
X152747363Y-94272759D01*
X152947241Y-94472637D01*
X152977001Y-94492522D01*
X152977001Y-94945420D01*
X151689422Y-96233000D01*
X151392078Y-96233000D01*
X151281608Y-96098392D01*
X151063101Y-95919068D01*
X150930142Y-95848000D01*
X151063101Y-95776932D01*
X151281608Y-95597608D01*
X151460932Y-95379101D01*
X151594182Y-95129808D01*
X151676236Y-94859309D01*
X151703943Y-94578000D01*
X151676236Y-94296691D01*
X151594182Y-94026192D01*
X151460932Y-93776899D01*
X151281608Y-93558392D01*
X151063101Y-93379068D01*
X150935259Y-93310735D01*
X151164839Y-93160601D01*
X151366500Y-92962895D01*
X151525715Y-92729646D01*
X151636367Y-92469818D01*
X151653904Y-92387039D01*
X151531915Y-92165000D01*
X149989000Y-92165000D01*
X149989000Y-92185000D01*
X149735000Y-92185000D01*
X149735000Y-92165000D01*
X149715000Y-92165000D01*
X149715000Y-91911000D01*
X149735000Y-91911000D01*
X149735000Y-90603000D01*
X149989000Y-90603000D01*
X149989000Y-91911000D01*
X151531915Y-91911000D01*
X151653904Y-91688961D01*
X151636367Y-91606182D01*
X151525715Y-91346354D01*
X151366500Y-91113105D01*
X151164839Y-90915399D01*
X150928483Y-90760834D01*
X150666514Y-90655350D01*
X150389000Y-90603000D01*
X149989000Y-90603000D01*
X149735000Y-90603000D01*
X149335000Y-90603000D01*
X149057486Y-90655350D01*
X148795517Y-90760834D01*
X148559161Y-90915399D01*
X148357500Y-91113105D01*
X148198285Y-91346354D01*
X148087633Y-91606182D01*
X148070096Y-91688961D01*
X148113450Y-91767872D01*
X147788534Y-91442956D01*
X147760817Y-91409183D01*
X147626059Y-91298589D01*
X147472313Y-91216411D01*
X147305490Y-91165805D01*
X147175477Y-91153000D01*
X147175469Y-91153000D01*
X147132000Y-91148719D01*
X147088531Y-91153000D01*
X143772078Y-91153000D01*
X143661608Y-91018392D01*
X143443101Y-90839068D01*
X143193808Y-90705818D01*
X142923309Y-90623764D01*
X142712492Y-90603000D01*
X141771508Y-90603000D01*
X141560691Y-90623764D01*
X141290192Y-90705818D01*
X141044361Y-90837218D01*
X142283488Y-89598091D01*
X142335501Y-89619635D01*
X142684223Y-89689000D01*
X143039777Y-89689000D01*
X143388499Y-89619635D01*
X143716988Y-89483571D01*
X144012621Y-89286035D01*
X144264035Y-89034621D01*
X144461571Y-88738988D01*
X144497188Y-88653000D01*
X146226812Y-88653000D01*
X146262429Y-88738988D01*
X146459965Y-89034621D01*
X146711379Y-89286035D01*
X147007012Y-89483571D01*
X147335501Y-89619635D01*
X147684223Y-89689000D01*
X148039777Y-89689000D01*
X148388499Y-89619635D01*
X148716988Y-89483571D01*
X149012621Y-89286035D01*
X149264035Y-89034621D01*
X149461571Y-88738988D01*
X149597635Y-88410499D01*
X149667000Y-88061777D01*
X149667000Y-87706223D01*
X149642366Y-87582375D01*
X151477320Y-87582375D01*
X151477320Y-87953625D01*
X151549747Y-88317741D01*
X151691818Y-88660731D01*
X151898074Y-88969413D01*
X152160587Y-89231926D01*
X152469269Y-89438182D01*
X152812259Y-89580253D01*
X153176375Y-89652680D01*
X153547625Y-89652680D01*
X153911741Y-89580253D01*
X154254731Y-89438182D01*
X154563413Y-89231926D01*
X154825926Y-88969413D01*
X155032182Y-88660731D01*
X155035384Y-88653000D01*
X159227479Y-88653000D01*
X159247363Y-88682759D01*
X159447241Y-88882637D01*
X159682273Y-89039680D01*
X159943426Y-89147853D01*
X160220665Y-89203000D01*
X160227001Y-89203000D01*
X160227001Y-89643478D01*
X160197241Y-89663363D01*
X159997363Y-89863241D01*
X159840320Y-90098273D01*
X159732147Y-90359426D01*
X159677000Y-90636665D01*
X159677000Y-90919335D01*
X159732147Y-91196574D01*
X159840320Y-91457727D01*
X159997363Y-91692759D01*
X160197241Y-91892637D01*
X160432273Y-92049680D01*
X160693426Y-92157853D01*
X160970665Y-92213000D01*
X161253335Y-92213000D01*
X161530574Y-92157853D01*
X161791727Y-92049680D01*
X162026759Y-91892637D01*
X162226637Y-91692759D01*
X162383680Y-91457727D01*
X162491853Y-91196574D01*
X162547000Y-90919335D01*
X162547000Y-90636665D01*
X163427000Y-90636665D01*
X163427000Y-90919335D01*
X163482147Y-91196574D01*
X163590320Y-91457727D01*
X163747363Y-91692759D01*
X163947241Y-91892637D01*
X164182273Y-92049680D01*
X164443426Y-92157853D01*
X164720665Y-92213000D01*
X165003335Y-92213000D01*
X165280574Y-92157853D01*
X165541727Y-92049680D01*
X165776759Y-91892637D01*
X165976637Y-91692759D01*
X166133680Y-91457727D01*
X166241853Y-91196574D01*
X166297000Y-90919335D01*
X166297000Y-90636665D01*
X166241853Y-90359426D01*
X166133680Y-90098273D01*
X165976637Y-89863241D01*
X165776759Y-89663363D01*
X165747000Y-89643479D01*
X165747000Y-89154531D01*
X165780574Y-89147853D01*
X166041727Y-89039680D01*
X166276759Y-88882637D01*
X166476637Y-88682759D01*
X166633680Y-88447727D01*
X166741853Y-88186574D01*
X166797000Y-87909335D01*
X166797000Y-87626665D01*
X166741853Y-87349426D01*
X166633680Y-87088273D01*
X166476637Y-86853241D01*
X166276759Y-86653363D01*
X166041727Y-86496320D01*
X165780574Y-86388147D01*
X165503335Y-86333000D01*
X165220665Y-86333000D01*
X164943426Y-86388147D01*
X164682273Y-86496320D01*
X164447241Y-86653363D01*
X164247363Y-86853241D01*
X164090320Y-87088273D01*
X163982147Y-87349426D01*
X163927000Y-87626665D01*
X163927000Y-87909335D01*
X163981205Y-88181837D01*
X163972719Y-88268000D01*
X163977001Y-88311479D01*
X163977000Y-89643478D01*
X163947241Y-89663363D01*
X163747363Y-89863241D01*
X163590320Y-90098273D01*
X163482147Y-90359426D01*
X163427000Y-90636665D01*
X162547000Y-90636665D01*
X162491853Y-90359426D01*
X162383680Y-90098273D01*
X162226637Y-89863241D01*
X162026759Y-89663363D01*
X161997000Y-89643479D01*
X161997000Y-88561465D01*
X162001281Y-88517999D01*
X161997000Y-88474533D01*
X161997000Y-88474523D01*
X161984195Y-88344510D01*
X161933589Y-88177687D01*
X161851411Y-88023941D01*
X161793704Y-87953625D01*
X161789266Y-87948217D01*
X161797000Y-87909335D01*
X161797000Y-87626665D01*
X161741853Y-87349426D01*
X161633680Y-87088273D01*
X161476637Y-86853241D01*
X161276759Y-86653363D01*
X161041727Y-86496320D01*
X160780574Y-86388147D01*
X160503335Y-86333000D01*
X160220665Y-86333000D01*
X159943426Y-86388147D01*
X159682273Y-86496320D01*
X159447241Y-86653363D01*
X159247363Y-86853241D01*
X159227479Y-86883000D01*
X155035384Y-86883000D01*
X155032182Y-86875269D01*
X154825926Y-86566587D01*
X154563413Y-86304074D01*
X154254731Y-86097818D01*
X153911741Y-85955747D01*
X153547625Y-85883320D01*
X153176375Y-85883320D01*
X152812259Y-85955747D01*
X152469269Y-86097818D01*
X152160587Y-86304074D01*
X151898074Y-86566587D01*
X151691818Y-86875269D01*
X151549747Y-87218259D01*
X151477320Y-87582375D01*
X149642366Y-87582375D01*
X149597635Y-87357501D01*
X149461571Y-87029012D01*
X149264035Y-86733379D01*
X149012621Y-86481965D01*
X148716988Y-86284429D01*
X148388499Y-86148365D01*
X148039777Y-86079000D01*
X147684223Y-86079000D01*
X147335501Y-86148365D01*
X147007012Y-86284429D01*
X146711379Y-86481965D01*
X146459965Y-86733379D01*
X146359991Y-86883000D01*
X144364009Y-86883000D01*
X144264035Y-86733379D01*
X144012621Y-86481965D01*
X143716988Y-86284429D01*
X143388499Y-86148365D01*
X143039777Y-86079000D01*
X142684223Y-86079000D01*
X142335501Y-86148365D01*
X142007012Y-86284429D01*
X141711379Y-86481965D01*
X141459965Y-86733379D01*
X141262429Y-87029012D01*
X141126365Y-87357501D01*
X141057000Y-87706223D01*
X141057000Y-88061777D01*
X141100078Y-88278344D01*
X138266956Y-91111466D01*
X138233183Y-91139183D01*
X138122589Y-91273942D01*
X138040411Y-91427688D01*
X138005157Y-91543904D01*
X137989805Y-91594510D01*
X137988212Y-91610686D01*
X137977000Y-91724524D01*
X137977000Y-91724531D01*
X137972719Y-91768000D01*
X137977000Y-91811469D01*
X137977000Y-92223479D01*
X137947241Y-92243363D01*
X137747363Y-92443241D01*
X137590320Y-92678273D01*
X137482147Y-92939426D01*
X137427000Y-93216665D01*
X137427000Y-93499335D01*
X137482147Y-93776574D01*
X137590320Y-94037727D01*
X137747363Y-94272759D01*
X137947241Y-94472637D01*
X138182273Y-94629680D01*
X138443426Y-94737853D01*
X138720665Y-94793000D01*
X139003335Y-94793000D01*
X139038439Y-94786017D01*
X139425468Y-95173047D01*
X139453183Y-95206817D01*
X139486951Y-95234530D01*
X139486953Y-95234532D01*
X139587941Y-95317411D01*
X139741686Y-95399589D01*
X139901643Y-95448112D01*
X139908510Y-95450195D01*
X140038523Y-95463000D01*
X140038531Y-95463000D01*
X140082000Y-95467281D01*
X140125469Y-95463000D01*
X140711922Y-95463000D01*
X140822392Y-95597608D01*
X141040899Y-95776932D01*
X141173858Y-95848000D01*
X141040899Y-95919068D01*
X140822392Y-96098392D01*
X140711922Y-96233000D01*
X140145469Y-96233000D01*
X140102000Y-96228719D01*
X140058531Y-96233000D01*
X140058523Y-96233000D01*
X139928510Y-96245805D01*
X139761687Y-96296411D01*
X139710629Y-96323702D01*
X139607941Y-96378589D01*
X139506953Y-96461468D01*
X139506951Y-96461470D01*
X139473183Y-96489183D01*
X139445470Y-96522951D01*
X139038439Y-96929983D01*
X139003335Y-96923000D01*
X138720665Y-96923000D01*
X138443426Y-96978147D01*
X138182273Y-97086320D01*
X137947241Y-97243363D01*
X137747363Y-97443241D01*
X137590320Y-97678273D01*
X137482147Y-97939426D01*
X137427000Y-98216665D01*
X137427000Y-98499335D01*
X137436637Y-98547784D01*
X136207402Y-99777020D01*
X136041727Y-99666320D01*
X135780574Y-99558147D01*
X135503335Y-99503000D01*
X135220665Y-99503000D01*
X135185561Y-99509983D01*
X132143646Y-96468068D01*
X132115929Y-96434295D01*
X131981171Y-96323701D01*
X131827425Y-96241523D01*
X131797038Y-96232305D01*
X131787812Y-96138630D01*
X131751502Y-96018932D01*
X131692537Y-95908618D01*
X131613185Y-95811927D01*
X131516494Y-95732575D01*
X131406180Y-95673610D01*
X131310057Y-95644451D01*
X131476637Y-95477871D01*
X131633680Y-95242839D01*
X131741853Y-94981686D01*
X131797000Y-94704447D01*
X131797000Y-94421777D01*
X131741853Y-94144538D01*
X131633680Y-93883385D01*
X131476637Y-93648353D01*
X131276759Y-93448475D01*
X131041727Y-93291432D01*
X130780574Y-93183259D01*
X130503335Y-93128112D01*
X130220665Y-93128112D01*
X129943426Y-93183259D01*
X129682273Y-93291432D01*
X129447241Y-93448475D01*
X129247363Y-93648353D01*
X129090320Y-93883385D01*
X129074180Y-93922351D01*
X129059626Y-93934295D01*
X129031913Y-93968063D01*
X125639870Y-97360107D01*
X125683589Y-97278313D01*
X125734195Y-97111490D01*
X125747000Y-96981477D01*
X125747000Y-96981467D01*
X125751281Y-96938001D01*
X125747000Y-96894535D01*
X125747000Y-91912521D01*
X125776759Y-91892637D01*
X125976637Y-91692759D01*
X126133680Y-91457727D01*
X126241853Y-91196574D01*
X126297000Y-90919335D01*
X126297000Y-90636665D01*
X133927000Y-90636665D01*
X133927000Y-90919335D01*
X133982147Y-91196574D01*
X134090320Y-91457727D01*
X134247363Y-91692759D01*
X134447241Y-91892637D01*
X134682273Y-92049680D01*
X134943426Y-92157853D01*
X135220665Y-92213000D01*
X135503335Y-92213000D01*
X135780574Y-92157853D01*
X136041727Y-92049680D01*
X136276759Y-91892637D01*
X136476637Y-91692759D01*
X136633680Y-91457727D01*
X136741853Y-91196574D01*
X136797000Y-90919335D01*
X136797000Y-90636665D01*
X136741853Y-90359426D01*
X136677504Y-90204074D01*
X137283488Y-89598091D01*
X137335501Y-89619635D01*
X137684223Y-89689000D01*
X138039777Y-89689000D01*
X138388499Y-89619635D01*
X138716988Y-89483571D01*
X139012621Y-89286035D01*
X139264035Y-89034621D01*
X139461571Y-88738988D01*
X139597635Y-88410499D01*
X139667000Y-88061777D01*
X139667000Y-87706223D01*
X139597635Y-87357501D01*
X139461571Y-87029012D01*
X139264035Y-86733379D01*
X139012621Y-86481965D01*
X138716988Y-86284429D01*
X138388499Y-86148365D01*
X138039777Y-86079000D01*
X137684223Y-86079000D01*
X137335501Y-86148365D01*
X137007012Y-86284429D01*
X136711379Y-86481965D01*
X136459965Y-86733379D01*
X136262429Y-87029012D01*
X136126365Y-87357501D01*
X136057000Y-87706223D01*
X136057000Y-88061777D01*
X136100078Y-88278344D01*
X134989425Y-89388997D01*
X134943426Y-89398147D01*
X134682273Y-89506320D01*
X134447241Y-89663363D01*
X134247363Y-89863241D01*
X134090320Y-90098273D01*
X133982147Y-90359426D01*
X133927000Y-90636665D01*
X126297000Y-90636665D01*
X126288358Y-90593220D01*
X127304528Y-89577051D01*
X127312259Y-89580253D01*
X127676375Y-89652680D01*
X128047625Y-89652680D01*
X128411741Y-89580253D01*
X128754731Y-89438182D01*
X129063413Y-89231926D01*
X129325926Y-88969413D01*
X129532182Y-88660731D01*
X129674253Y-88317741D01*
X129746680Y-87953625D01*
X129746680Y-87582375D01*
X129674253Y-87218259D01*
X129532182Y-86875269D01*
X129325926Y-86566587D01*
X129063413Y-86304074D01*
X128754731Y-86097818D01*
X128411741Y-85955747D01*
X128047625Y-85883320D01*
X127676375Y-85883320D01*
X127312259Y-85955747D01*
X126969269Y-86097818D01*
X126660587Y-86304074D01*
X126398074Y-86566587D01*
X126191818Y-86875269D01*
X126049747Y-87218259D01*
X125977320Y-87582375D01*
X125977320Y-87953625D01*
X126049747Y-88317741D01*
X126052949Y-88325472D01*
X125030098Y-89348324D01*
X125003335Y-89343000D01*
X124720665Y-89343000D01*
X124443426Y-89398147D01*
X124182273Y-89506320D01*
X123947241Y-89663363D01*
X123747363Y-89863241D01*
X123590320Y-90098273D01*
X123482147Y-90359426D01*
X123427000Y-90636665D01*
X123427000Y-90919335D01*
X123482147Y-91196574D01*
X123590320Y-91457727D01*
X123747363Y-91692759D01*
X123947241Y-91892637D01*
X123977000Y-91912521D01*
X123977001Y-96571420D01*
X121038439Y-99509983D01*
X121003335Y-99503000D01*
X120720665Y-99503000D01*
X120443426Y-99558147D01*
X120182273Y-99666320D01*
X119947241Y-99823363D01*
X119747363Y-100023241D01*
X119590320Y-100258273D01*
X119482147Y-100519426D01*
X119427000Y-100796665D01*
X118173000Y-100796665D01*
X118173000Y-91770702D01*
X120048903Y-91770702D01*
X120120486Y-92014671D01*
X120375996Y-92135571D01*
X120650184Y-92204300D01*
X120932512Y-92218217D01*
X121212130Y-92176787D01*
X121478292Y-92081603D01*
X121603514Y-92014671D01*
X121675097Y-91770702D01*
X120862000Y-90957605D01*
X120048903Y-91770702D01*
X118173000Y-91770702D01*
X118173000Y-90848512D01*
X119421783Y-90848512D01*
X119463213Y-91128130D01*
X119558397Y-91394292D01*
X119625329Y-91519514D01*
X119869298Y-91591097D01*
X120682395Y-90778000D01*
X121041605Y-90778000D01*
X121854702Y-91591097D01*
X122098671Y-91519514D01*
X122219571Y-91264004D01*
X122288300Y-90989816D01*
X122302217Y-90707488D01*
X122260787Y-90427870D01*
X122165603Y-90161708D01*
X122098671Y-90036486D01*
X121854702Y-89964903D01*
X121041605Y-90778000D01*
X120682395Y-90778000D01*
X119869298Y-89964903D01*
X119625329Y-90036486D01*
X119504429Y-90291996D01*
X119435700Y-90566184D01*
X119421783Y-90848512D01*
X118173000Y-90848512D01*
X118173000Y-89785298D01*
X120048903Y-89785298D01*
X120862000Y-90598395D01*
X121675097Y-89785298D01*
X121603514Y-89541329D01*
X121348004Y-89420429D01*
X121073816Y-89351700D01*
X120791488Y-89337783D01*
X120511870Y-89379213D01*
X120245708Y-89474397D01*
X120120486Y-89541329D01*
X120048903Y-89785298D01*
X118173000Y-89785298D01*
X118173000Y-85806388D01*
X118199832Y-85532740D01*
X118268158Y-85306432D01*
X118379137Y-85097712D01*
X118528544Y-84914522D01*
X118710688Y-84763838D01*
X118918624Y-84651408D01*
X119144447Y-84581504D01*
X119415647Y-84553000D01*
X166349612Y-84553000D01*
X166623260Y-84579832D01*
M02*
