G04 #@! TF.GenerationSoftware,KiCad,Pcbnew,(5.1.5-0-10_14)*
G04 #@! TF.CreationDate,2020-08-10T00:11:30+03:00*
G04 #@! TF.ProjectId,booster-op-amp,626f6f73-7465-4722-9d6f-702d616d702e,1*
G04 #@! TF.SameCoordinates,Original*
G04 #@! TF.FileFunction,Copper,L1,Top*
G04 #@! TF.FilePolarity,Positive*
%FSLAX46Y46*%
G04 Gerber Fmt 4.6, Leading zero omitted, Abs format (unit mm)*
G04 Created by KiCad (PCBNEW (5.1.5-0-10_14)) date 2020-08-10 00:11:30*
%MOMM*%
%LPD*%
G04 APERTURE LIST*
%ADD10C,0.300000*%
%ADD11C,2.499360*%
%ADD12R,2.499360X2.499360*%
%ADD13O,2.400000X1.600000*%
%ADD14R,2.400000X1.600000*%
%ADD15C,2.340000*%
%ADD16O,1.600000X1.600000*%
%ADD17C,1.600000*%
%ADD18R,1.600000X1.600000*%
G04 APERTURE END LIST*
D10*
X166388000Y-83768000D02*
G75*
G02X168388000Y-85768000I0J-2000000D01*
G01*
X168388000Y-110768000D02*
G75*
G02X166388000Y-112768000I-2000000J0D01*
G01*
X119388000Y-112768000D02*
G75*
G02X117388000Y-110768000I0J2000000D01*
G01*
X117388000Y-85768000D02*
G75*
G02X119388000Y-83768000I2000000J0D01*
G01*
X119388000Y-112768000D02*
X166388000Y-112768000D01*
X117388000Y-85768000D02*
X117388000Y-110768000D01*
X166388000Y-83768000D02*
X119388000Y-83768000D01*
X168362000Y-110768000D02*
X168362000Y-85768000D01*
D11*
X127862000Y-87768000D03*
X153362000Y-87768000D03*
X121112000Y-108768000D03*
D12*
X124922000Y-108768000D03*
D13*
X142242000Y-99658000D03*
X149862000Y-92038000D03*
X142242000Y-97118000D03*
X149862000Y-94578000D03*
X142242000Y-94578000D03*
X149862000Y-97118000D03*
X142242000Y-92038000D03*
D14*
X149862000Y-99658000D03*
D15*
X147862000Y-87884000D03*
X142862000Y-87884000D03*
X137862000Y-87884000D03*
D16*
X120862000Y-100938000D03*
D17*
X120862000Y-90778000D03*
D16*
X124862000Y-100938000D03*
D17*
X124862000Y-90778000D03*
D16*
X135362000Y-90778000D03*
D17*
X135362000Y-100938000D03*
D16*
X151117000Y-103018000D03*
D17*
X140957000Y-103018000D03*
D16*
X157362000Y-90778000D03*
D17*
X157362000Y-100938000D03*
D16*
X164862000Y-90778000D03*
D17*
X164862000Y-100938000D03*
D16*
X161112000Y-90778000D03*
D17*
X161112000Y-100938000D03*
D16*
X161272000Y-106268000D03*
D17*
X151112000Y-106268000D03*
D16*
X141022000Y-106268000D03*
D17*
X130862000Y-106268000D03*
X130362000Y-94563112D03*
D18*
X130362000Y-97063112D03*
D17*
X138862000Y-93358000D03*
X138862000Y-98358000D03*
X153862000Y-93358000D03*
X153862000Y-98358000D03*
X160362000Y-87768000D03*
X165362000Y-87768000D03*
X146037000Y-108768000D03*
D18*
X146037000Y-106268000D03*
M02*
