M48
; DRILL file {KiCad (5.1.5-0-10_14)} date 2020 August 10, Monday 00:10:38
; FORMAT={-:-/ absolute / metric / decimal}
; #@! TF.CreationDate,2020-08-10T00:10:38+03:00
; #@! TF.GenerationSoftware,Kicad,Pcbnew,(5.1.5-0-10_14)
FMAT,2
METRIC
T1C0.800
T2C1.001
T3C1.300
%
G90
G05
T1
X124.862Y90.778
X124.862Y100.938
X146.037Y106.268
X146.037Y108.768
X130.862Y106.268
X141.022Y106.268
X130.362Y94.563
X130.362Y97.063
X151.112Y106.268
X161.272Y106.268
X153.862Y93.358
X153.862Y98.358
X160.362Y87.768
X165.362Y87.768
X161.112Y90.778
X161.112Y100.938
X140.957Y103.018
X151.117Y103.018
X157.362Y90.778
X157.362Y100.938
X142.242Y92.038
X142.242Y94.578
X142.242Y97.118
X142.242Y99.658
X149.862Y92.038
X149.862Y94.578
X149.862Y97.118
X149.862Y99.658
X120.862Y90.778
X120.862Y100.938
X138.862Y93.358
X138.862Y98.358
X135.362Y90.778
X135.362Y100.938
X164.862Y90.778
X164.862Y100.938
T2
X153.362Y87.768
X121.112Y108.768
X124.922Y108.768
X127.862Y87.768
T3
X137.862Y87.884
X142.862Y87.884
X147.862Y87.884
T0
M30
