G04 #@! TF.GenerationSoftware,KiCad,Pcbnew,(5.1.5-0-10_14)*
G04 #@! TF.CreationDate,2020-08-10T00:11:30+03:00*
G04 #@! TF.ProjectId,booster-op-amp,626f6f73-7465-4722-9d6f-702d616d702e,1*
G04 #@! TF.SameCoordinates,Original*
G04 #@! TF.FileFunction,Legend,Top*
G04 #@! TF.FilePolarity,Positive*
%FSLAX46Y46*%
G04 Gerber Fmt 4.6, Leading zero omitted, Abs format (unit mm)*
G04 Created by KiCad (PCBNEW (5.1.5-0-10_14)) date 2020-08-10 00:11:30*
%MOMM*%
%LPD*%
G04 APERTURE LIST*
%ADD10C,0.300000*%
%ADD11C,0.150000*%
%ADD12C,0.120000*%
G04 APERTURE END LIST*
D10*
X166388000Y-83768000D02*
G75*
G02X168388000Y-85768000I0J-2000000D01*
G01*
X168388000Y-110768000D02*
G75*
G02X166388000Y-112768000I-2000000J0D01*
G01*
X119388000Y-112768000D02*
G75*
G02X117388000Y-110768000I0J2000000D01*
G01*
X117388000Y-85768000D02*
G75*
G02X119388000Y-83768000I2000000J0D01*
G01*
D11*
X160456857Y-110426380D02*
X160456857Y-109426380D01*
X160456857Y-109807333D02*
X160552095Y-109759714D01*
X160742571Y-109759714D01*
X160837809Y-109807333D01*
X160885428Y-109854952D01*
X160933047Y-109950190D01*
X160933047Y-110235904D01*
X160885428Y-110331142D01*
X160837809Y-110378761D01*
X160742571Y-110426380D01*
X160552095Y-110426380D01*
X160456857Y-110378761D01*
X161361619Y-110426380D02*
X161361619Y-109759714D01*
X161361619Y-109950190D02*
X161409238Y-109854952D01*
X161456857Y-109807333D01*
X161552095Y-109759714D01*
X161647333Y-109759714D01*
X161980666Y-109759714D02*
X161980666Y-110426380D01*
X161980666Y-109854952D02*
X162028285Y-109807333D01*
X162123523Y-109759714D01*
X162266380Y-109759714D01*
X162361619Y-109807333D01*
X162409238Y-109902571D01*
X162409238Y-110426380D01*
X162790190Y-109759714D02*
X163028285Y-110426380D01*
X163266380Y-109759714D01*
X163647333Y-110331142D02*
X163694952Y-110378761D01*
X163647333Y-110426380D01*
X163599714Y-110378761D01*
X163647333Y-110331142D01*
X163647333Y-110426380D01*
X164123523Y-110426380D02*
X164123523Y-109759714D01*
X164123523Y-109950190D02*
X164171142Y-109854952D01*
X164218761Y-109807333D01*
X164314000Y-109759714D01*
X164409238Y-109759714D01*
X165171142Y-109759714D02*
X165171142Y-110426380D01*
X164742571Y-109759714D02*
X164742571Y-110283523D01*
X164790190Y-110378761D01*
X164885428Y-110426380D01*
X165028285Y-110426380D01*
X165123523Y-110378761D01*
X165171142Y-110331142D01*
X128929619Y-110331142D02*
X128882000Y-110378761D01*
X128739142Y-110426380D01*
X128643904Y-110426380D01*
X128501047Y-110378761D01*
X128405809Y-110283523D01*
X128358190Y-110188285D01*
X128310571Y-109997809D01*
X128310571Y-109854952D01*
X128358190Y-109664476D01*
X128405809Y-109569238D01*
X128501047Y-109474000D01*
X128643904Y-109426380D01*
X128739142Y-109426380D01*
X128882000Y-109474000D01*
X128929619Y-109521619D01*
X129501047Y-110426380D02*
X129405809Y-110378761D01*
X129358190Y-110283523D01*
X129358190Y-109426380D01*
X130262952Y-110378761D02*
X130167714Y-110426380D01*
X129977238Y-110426380D01*
X129882000Y-110378761D01*
X129834380Y-110283523D01*
X129834380Y-109902571D01*
X129882000Y-109807333D01*
X129977238Y-109759714D01*
X130167714Y-109759714D01*
X130262952Y-109807333D01*
X130310571Y-109902571D01*
X130310571Y-109997809D01*
X129834380Y-110093047D01*
X131167714Y-110426380D02*
X131167714Y-109902571D01*
X131120095Y-109807333D01*
X131024857Y-109759714D01*
X130834380Y-109759714D01*
X130739142Y-109807333D01*
X131167714Y-110378761D02*
X131072476Y-110426380D01*
X130834380Y-110426380D01*
X130739142Y-110378761D01*
X130691523Y-110283523D01*
X130691523Y-110188285D01*
X130739142Y-110093047D01*
X130834380Y-110045428D01*
X131072476Y-110045428D01*
X131167714Y-109997809D01*
X131643904Y-109759714D02*
X131643904Y-110426380D01*
X131643904Y-109854952D02*
X131691523Y-109807333D01*
X131786761Y-109759714D01*
X131929619Y-109759714D01*
X132024857Y-109807333D01*
X132072476Y-109902571D01*
X132072476Y-110426380D01*
X133643904Y-109902571D02*
X133786761Y-109950190D01*
X133834380Y-109997809D01*
X133882000Y-110093047D01*
X133882000Y-110235904D01*
X133834380Y-110331142D01*
X133786761Y-110378761D01*
X133691523Y-110426380D01*
X133310571Y-110426380D01*
X133310571Y-109426380D01*
X133643904Y-109426380D01*
X133739142Y-109474000D01*
X133786761Y-109521619D01*
X133834380Y-109616857D01*
X133834380Y-109712095D01*
X133786761Y-109807333D01*
X133739142Y-109854952D01*
X133643904Y-109902571D01*
X133310571Y-109902571D01*
X134453428Y-110426380D02*
X134358190Y-110378761D01*
X134310571Y-110331142D01*
X134262952Y-110235904D01*
X134262952Y-109950190D01*
X134310571Y-109854952D01*
X134358190Y-109807333D01*
X134453428Y-109759714D01*
X134596285Y-109759714D01*
X134691523Y-109807333D01*
X134739142Y-109854952D01*
X134786761Y-109950190D01*
X134786761Y-110235904D01*
X134739142Y-110331142D01*
X134691523Y-110378761D01*
X134596285Y-110426380D01*
X134453428Y-110426380D01*
X135358190Y-110426380D02*
X135262952Y-110378761D01*
X135215333Y-110331142D01*
X135167714Y-110235904D01*
X135167714Y-109950190D01*
X135215333Y-109854952D01*
X135262952Y-109807333D01*
X135358190Y-109759714D01*
X135501047Y-109759714D01*
X135596285Y-109807333D01*
X135643904Y-109854952D01*
X135691523Y-109950190D01*
X135691523Y-110235904D01*
X135643904Y-110331142D01*
X135596285Y-110378761D01*
X135501047Y-110426380D01*
X135358190Y-110426380D01*
X136072476Y-110378761D02*
X136167714Y-110426380D01*
X136358190Y-110426380D01*
X136453428Y-110378761D01*
X136501047Y-110283523D01*
X136501047Y-110235904D01*
X136453428Y-110140666D01*
X136358190Y-110093047D01*
X136215333Y-110093047D01*
X136120095Y-110045428D01*
X136072476Y-109950190D01*
X136072476Y-109902571D01*
X136120095Y-109807333D01*
X136215333Y-109759714D01*
X136358190Y-109759714D01*
X136453428Y-109807333D01*
X136786761Y-109759714D02*
X137167714Y-109759714D01*
X136929619Y-109426380D02*
X136929619Y-110283523D01*
X136977238Y-110378761D01*
X137072476Y-110426380D01*
X137167714Y-110426380D01*
X137882000Y-110378761D02*
X137786761Y-110426380D01*
X137596285Y-110426380D01*
X137501047Y-110378761D01*
X137453428Y-110283523D01*
X137453428Y-109902571D01*
X137501047Y-109807333D01*
X137596285Y-109759714D01*
X137786761Y-109759714D01*
X137882000Y-109807333D01*
X137929619Y-109902571D01*
X137929619Y-109997809D01*
X137453428Y-110093047D01*
X138358190Y-110426380D02*
X138358190Y-109759714D01*
X138358190Y-109950190D02*
X138405809Y-109854952D01*
X138453428Y-109807333D01*
X138548666Y-109759714D01*
X138643904Y-109759714D01*
X139643904Y-109759714D02*
X139882000Y-110426380D01*
X140120095Y-109759714D01*
X140691523Y-109426380D02*
X140786761Y-109426380D01*
X140882000Y-109474000D01*
X140929619Y-109521619D01*
X140977238Y-109616857D01*
X141024857Y-109807333D01*
X141024857Y-110045428D01*
X140977238Y-110235904D01*
X140929619Y-110331142D01*
X140882000Y-110378761D01*
X140786761Y-110426380D01*
X140691523Y-110426380D01*
X140596285Y-110378761D01*
X140548666Y-110331142D01*
X140501047Y-110235904D01*
X140453428Y-110045428D01*
X140453428Y-109807333D01*
X140501047Y-109616857D01*
X140548666Y-109521619D01*
X140596285Y-109474000D01*
X140691523Y-109426380D01*
X141453428Y-110331142D02*
X141501047Y-110378761D01*
X141453428Y-110426380D01*
X141405809Y-110378761D01*
X141453428Y-110331142D01*
X141453428Y-110426380D01*
X142453428Y-110426380D02*
X141882000Y-110426380D01*
X142167714Y-110426380D02*
X142167714Y-109426380D01*
X142072476Y-109569238D01*
X141977238Y-109664476D01*
X141882000Y-109712095D01*
X155686190Y-88336380D02*
X155686190Y-87336380D01*
X156162380Y-88336380D02*
X156162380Y-87336380D01*
X156733809Y-88336380D01*
X156733809Y-87336380D01*
X130572000Y-87082380D02*
X130762476Y-87082380D01*
X130857714Y-87130000D01*
X130952952Y-87225238D01*
X131000571Y-87415714D01*
X131000571Y-87749047D01*
X130952952Y-87939523D01*
X130857714Y-88034761D01*
X130762476Y-88082380D01*
X130572000Y-88082380D01*
X130476761Y-88034761D01*
X130381523Y-87939523D01*
X130333904Y-87749047D01*
X130333904Y-87415714D01*
X130381523Y-87225238D01*
X130476761Y-87130000D01*
X130572000Y-87082380D01*
X131429142Y-87082380D02*
X131429142Y-87891904D01*
X131476761Y-87987142D01*
X131524380Y-88034761D01*
X131619619Y-88082380D01*
X131810095Y-88082380D01*
X131905333Y-88034761D01*
X131952952Y-87987142D01*
X132000571Y-87891904D01*
X132000571Y-87082380D01*
X132333904Y-87082380D02*
X132905333Y-87082380D01*
X132619619Y-88082380D02*
X132619619Y-87082380D01*
X123952095Y-105164000D02*
X123856857Y-105116380D01*
X123714000Y-105116380D01*
X123571142Y-105164000D01*
X123475904Y-105259238D01*
X123428285Y-105354476D01*
X123380666Y-105544952D01*
X123380666Y-105687809D01*
X123428285Y-105878285D01*
X123475904Y-105973523D01*
X123571142Y-106068761D01*
X123714000Y-106116380D01*
X123809238Y-106116380D01*
X123952095Y-106068761D01*
X123999714Y-106021142D01*
X123999714Y-105687809D01*
X123809238Y-105687809D01*
X124428285Y-106116380D02*
X124428285Y-105116380D01*
X124999714Y-106116380D01*
X124999714Y-105116380D01*
X125475904Y-106116380D02*
X125475904Y-105116380D01*
X125714000Y-105116380D01*
X125856857Y-105164000D01*
X125952095Y-105259238D01*
X125999714Y-105354476D01*
X126047333Y-105544952D01*
X126047333Y-105687809D01*
X125999714Y-105878285D01*
X125952095Y-105973523D01*
X125856857Y-106068761D01*
X125714000Y-106116380D01*
X125475904Y-106116380D01*
X119618285Y-105735428D02*
X120380190Y-105735428D01*
X119999238Y-106116380D02*
X119999238Y-105354476D01*
X120904000Y-106116380D02*
X121094476Y-106116380D01*
X121189714Y-106068761D01*
X121237333Y-106021142D01*
X121332571Y-105878285D01*
X121380190Y-105687809D01*
X121380190Y-105306857D01*
X121332571Y-105211619D01*
X121284952Y-105164000D01*
X121189714Y-105116380D01*
X120999238Y-105116380D01*
X120904000Y-105164000D01*
X120856380Y-105211619D01*
X120808761Y-105306857D01*
X120808761Y-105544952D01*
X120856380Y-105640190D01*
X120904000Y-105687809D01*
X120999238Y-105735428D01*
X121189714Y-105735428D01*
X121284952Y-105687809D01*
X121332571Y-105640190D01*
X121380190Y-105544952D01*
X121665904Y-105116380D02*
X121999238Y-106116380D01*
X122332571Y-105116380D01*
D10*
X119388000Y-112768000D02*
X166388000Y-112768000D01*
X117388000Y-85768000D02*
X117388000Y-110768000D01*
X166388000Y-83768000D02*
X119388000Y-83768000D01*
X168362000Y-110768000D02*
X168362000Y-85768000D01*
D12*
X143802000Y-100988000D02*
X145052000Y-100988000D01*
X143802000Y-90708000D02*
X143802000Y-100988000D01*
X148302000Y-90708000D02*
X143802000Y-90708000D01*
X148302000Y-100988000D02*
X148302000Y-90708000D01*
X147052000Y-100988000D02*
X148302000Y-100988000D01*
X145052000Y-100988000D02*
G75*
G02X147052000Y-100988000I1000000J0D01*
G01*
X150262000Y-88504000D02*
X150262000Y-77184000D01*
X149287000Y-88504000D02*
X150262000Y-88504000D01*
X144287000Y-88504000D02*
X146437000Y-88504000D01*
X139288000Y-88504000D02*
X141437000Y-88504000D01*
X135462000Y-88504000D02*
X136436000Y-88504000D01*
X135462000Y-88504000D02*
X135462000Y-77184000D01*
X152262000Y-71384000D02*
G75*
G03X152262000Y-71384000I-9400000J0D01*
G01*
X120862000Y-99898000D02*
X120862000Y-99128000D01*
X120862000Y-91818000D02*
X120862000Y-92588000D01*
X122232000Y-99128000D02*
X122232000Y-92588000D01*
X119492000Y-99128000D02*
X122232000Y-99128000D01*
X119492000Y-92588000D02*
X119492000Y-99128000D01*
X122232000Y-92588000D02*
X119492000Y-92588000D01*
X124862000Y-99898000D02*
X124862000Y-99128000D01*
X124862000Y-91818000D02*
X124862000Y-92588000D01*
X126232000Y-99128000D02*
X126232000Y-92588000D01*
X123492000Y-99128000D02*
X126232000Y-99128000D01*
X123492000Y-92588000D02*
X123492000Y-99128000D01*
X126232000Y-92588000D02*
X123492000Y-92588000D01*
X135362000Y-91818000D02*
X135362000Y-92588000D01*
X135362000Y-99898000D02*
X135362000Y-99128000D01*
X133992000Y-92588000D02*
X133992000Y-99128000D01*
X136732000Y-92588000D02*
X133992000Y-92588000D01*
X136732000Y-99128000D02*
X136732000Y-92588000D01*
X133992000Y-99128000D02*
X136732000Y-99128000D01*
X150077000Y-103018000D02*
X149307000Y-103018000D01*
X141997000Y-103018000D02*
X142767000Y-103018000D01*
X149307000Y-101648000D02*
X142767000Y-101648000D01*
X149307000Y-104388000D02*
X149307000Y-101648000D01*
X142767000Y-104388000D02*
X149307000Y-104388000D01*
X142767000Y-101648000D02*
X142767000Y-104388000D01*
X157362000Y-91818000D02*
X157362000Y-92588000D01*
X157362000Y-99898000D02*
X157362000Y-99128000D01*
X155992000Y-92588000D02*
X155992000Y-99128000D01*
X158732000Y-92588000D02*
X155992000Y-92588000D01*
X158732000Y-99128000D02*
X158732000Y-92588000D01*
X155992000Y-99128000D02*
X158732000Y-99128000D01*
X164862000Y-91818000D02*
X164862000Y-92588000D01*
X164862000Y-99898000D02*
X164862000Y-99128000D01*
X163492000Y-92588000D02*
X163492000Y-99128000D01*
X166232000Y-92588000D02*
X163492000Y-92588000D01*
X166232000Y-99128000D02*
X166232000Y-92588000D01*
X163492000Y-99128000D02*
X166232000Y-99128000D01*
X161112000Y-91818000D02*
X161112000Y-92588000D01*
X161112000Y-99898000D02*
X161112000Y-99128000D01*
X159742000Y-92588000D02*
X159742000Y-99128000D01*
X162482000Y-92588000D02*
X159742000Y-92588000D01*
X162482000Y-99128000D02*
X162482000Y-92588000D01*
X159742000Y-99128000D02*
X162482000Y-99128000D01*
X160232000Y-106268000D02*
X159462000Y-106268000D01*
X152152000Y-106268000D02*
X152922000Y-106268000D01*
X159462000Y-104898000D02*
X152922000Y-104898000D01*
X159462000Y-107638000D02*
X159462000Y-104898000D01*
X152922000Y-107638000D02*
X159462000Y-107638000D01*
X152922000Y-104898000D02*
X152922000Y-107638000D01*
X139982000Y-106268000D02*
X139212000Y-106268000D01*
X131902000Y-106268000D02*
X132672000Y-106268000D01*
X139212000Y-104898000D02*
X132672000Y-104898000D01*
X139212000Y-107638000D02*
X139212000Y-104898000D01*
X132672000Y-107638000D02*
X139212000Y-107638000D01*
X132672000Y-104898000D02*
X132672000Y-107638000D01*
X128637000Y-98367887D02*
X129137000Y-98367887D01*
X128887000Y-98617887D02*
X128887000Y-98117887D01*
X130078000Y-93212112D02*
X130646000Y-93212112D01*
X129844000Y-93252112D02*
X130880000Y-93252112D01*
X129685000Y-93292112D02*
X131039000Y-93292112D01*
X129557000Y-93332112D02*
X131167000Y-93332112D01*
X129447000Y-93372112D02*
X131277000Y-93372112D01*
X129351000Y-93412112D02*
X131373000Y-93412112D01*
X129264000Y-93452112D02*
X131460000Y-93452112D01*
X129184000Y-93492112D02*
X131540000Y-93492112D01*
X131402000Y-93532112D02*
X131613000Y-93532112D01*
X129111000Y-93532112D02*
X129322000Y-93532112D01*
X131402000Y-93572112D02*
X131681000Y-93572112D01*
X129043000Y-93572112D02*
X129322000Y-93572112D01*
X131402000Y-93612112D02*
X131745000Y-93612112D01*
X128979000Y-93612112D02*
X129322000Y-93612112D01*
X131402000Y-93652112D02*
X131805000Y-93652112D01*
X128919000Y-93652112D02*
X129322000Y-93652112D01*
X131402000Y-93692112D02*
X131862000Y-93692112D01*
X128862000Y-93692112D02*
X129322000Y-93692112D01*
X131402000Y-93732112D02*
X131916000Y-93732112D01*
X128808000Y-93732112D02*
X129322000Y-93732112D01*
X131402000Y-93772112D02*
X131967000Y-93772112D01*
X128757000Y-93772112D02*
X129322000Y-93772112D01*
X131402000Y-93812112D02*
X132015000Y-93812112D01*
X128709000Y-93812112D02*
X129322000Y-93812112D01*
X131402000Y-93852112D02*
X132061000Y-93852112D01*
X128663000Y-93852112D02*
X129322000Y-93852112D01*
X131402000Y-93892112D02*
X132105000Y-93892112D01*
X128619000Y-93892112D02*
X129322000Y-93892112D01*
X131402000Y-93932112D02*
X132147000Y-93932112D01*
X128577000Y-93932112D02*
X129322000Y-93932112D01*
X131402000Y-93972112D02*
X132188000Y-93972112D01*
X128536000Y-93972112D02*
X129322000Y-93972112D01*
X131402000Y-94012112D02*
X132226000Y-94012112D01*
X128498000Y-94012112D02*
X129322000Y-94012112D01*
X131402000Y-94052112D02*
X132263000Y-94052112D01*
X128461000Y-94052112D02*
X129322000Y-94052112D01*
X131402000Y-94092112D02*
X132299000Y-94092112D01*
X128425000Y-94092112D02*
X129322000Y-94092112D01*
X131402000Y-94132112D02*
X132333000Y-94132112D01*
X128391000Y-94132112D02*
X129322000Y-94132112D01*
X131402000Y-94172112D02*
X132366000Y-94172112D01*
X128358000Y-94172112D02*
X129322000Y-94172112D01*
X131402000Y-94212112D02*
X132397000Y-94212112D01*
X128327000Y-94212112D02*
X129322000Y-94212112D01*
X131402000Y-94252112D02*
X132427000Y-94252112D01*
X128297000Y-94252112D02*
X129322000Y-94252112D01*
X131402000Y-94292112D02*
X132457000Y-94292112D01*
X128267000Y-94292112D02*
X129322000Y-94292112D01*
X131402000Y-94332112D02*
X132484000Y-94332112D01*
X128240000Y-94332112D02*
X129322000Y-94332112D01*
X131402000Y-94372112D02*
X132511000Y-94372112D01*
X128213000Y-94372112D02*
X129322000Y-94372112D01*
X131402000Y-94412112D02*
X132537000Y-94412112D01*
X128187000Y-94412112D02*
X129322000Y-94412112D01*
X131402000Y-94452112D02*
X132562000Y-94452112D01*
X128162000Y-94452112D02*
X129322000Y-94452112D01*
X131402000Y-94492112D02*
X132586000Y-94492112D01*
X128138000Y-94492112D02*
X129322000Y-94492112D01*
X131402000Y-94532112D02*
X132609000Y-94532112D01*
X128115000Y-94532112D02*
X129322000Y-94532112D01*
X131402000Y-94572112D02*
X132630000Y-94572112D01*
X128094000Y-94572112D02*
X129322000Y-94572112D01*
X131402000Y-94612112D02*
X132652000Y-94612112D01*
X128072000Y-94612112D02*
X129322000Y-94612112D01*
X131402000Y-94652112D02*
X132672000Y-94652112D01*
X128052000Y-94652112D02*
X129322000Y-94652112D01*
X131402000Y-94692112D02*
X132691000Y-94692112D01*
X128033000Y-94692112D02*
X129322000Y-94692112D01*
X131402000Y-94732112D02*
X132710000Y-94732112D01*
X128014000Y-94732112D02*
X129322000Y-94732112D01*
X131402000Y-94772112D02*
X132727000Y-94772112D01*
X127997000Y-94772112D02*
X129322000Y-94772112D01*
X131402000Y-94812112D02*
X132744000Y-94812112D01*
X127980000Y-94812112D02*
X129322000Y-94812112D01*
X131402000Y-94852112D02*
X132760000Y-94852112D01*
X127964000Y-94852112D02*
X129322000Y-94852112D01*
X131402000Y-94892112D02*
X132776000Y-94892112D01*
X127948000Y-94892112D02*
X129322000Y-94892112D01*
X131402000Y-94932112D02*
X132790000Y-94932112D01*
X127934000Y-94932112D02*
X129322000Y-94932112D01*
X131402000Y-94972112D02*
X132804000Y-94972112D01*
X127920000Y-94972112D02*
X129322000Y-94972112D01*
X131402000Y-95012112D02*
X132817000Y-95012112D01*
X127907000Y-95012112D02*
X129322000Y-95012112D01*
X131402000Y-95052112D02*
X132830000Y-95052112D01*
X127894000Y-95052112D02*
X129322000Y-95052112D01*
X131402000Y-95092112D02*
X132842000Y-95092112D01*
X127882000Y-95092112D02*
X129322000Y-95092112D01*
X131402000Y-95133112D02*
X132853000Y-95133112D01*
X127871000Y-95133112D02*
X129322000Y-95133112D01*
X131402000Y-95173112D02*
X132863000Y-95173112D01*
X127861000Y-95173112D02*
X129322000Y-95173112D01*
X131402000Y-95213112D02*
X132873000Y-95213112D01*
X127851000Y-95213112D02*
X129322000Y-95213112D01*
X131402000Y-95253112D02*
X132882000Y-95253112D01*
X127842000Y-95253112D02*
X129322000Y-95253112D01*
X131402000Y-95293112D02*
X132890000Y-95293112D01*
X127834000Y-95293112D02*
X129322000Y-95293112D01*
X131402000Y-95333112D02*
X132898000Y-95333112D01*
X127826000Y-95333112D02*
X129322000Y-95333112D01*
X131402000Y-95373112D02*
X132905000Y-95373112D01*
X127819000Y-95373112D02*
X129322000Y-95373112D01*
X131402000Y-95413112D02*
X132912000Y-95413112D01*
X127812000Y-95413112D02*
X129322000Y-95413112D01*
X131402000Y-95453112D02*
X132918000Y-95453112D01*
X127806000Y-95453112D02*
X129322000Y-95453112D01*
X131402000Y-95493112D02*
X132923000Y-95493112D01*
X127801000Y-95493112D02*
X129322000Y-95493112D01*
X131402000Y-95533112D02*
X132927000Y-95533112D01*
X127797000Y-95533112D02*
X129322000Y-95533112D01*
X131402000Y-95573112D02*
X132931000Y-95573112D01*
X127793000Y-95573112D02*
X129322000Y-95573112D01*
X127789000Y-95613112D02*
X132935000Y-95613112D01*
X127786000Y-95653112D02*
X132938000Y-95653112D01*
X127784000Y-95693112D02*
X132940000Y-95693112D01*
X127783000Y-95733112D02*
X132941000Y-95733112D01*
X127782000Y-95773112D02*
X132942000Y-95773112D01*
X127782000Y-95813112D02*
X132942000Y-95813112D01*
X132982000Y-95813112D02*
G75*
G03X132982000Y-95813112I-2620000J0D01*
G01*
X139917000Y-93588000D02*
X139932000Y-93588000D01*
X137792000Y-93588000D02*
X137807000Y-93588000D01*
X139917000Y-98128000D02*
X139932000Y-98128000D01*
X137792000Y-98128000D02*
X137807000Y-98128000D01*
X139932000Y-98128000D02*
X139932000Y-93588000D01*
X137792000Y-98128000D02*
X137792000Y-93588000D01*
X154917000Y-93588000D02*
X154932000Y-93588000D01*
X152792000Y-93588000D02*
X152807000Y-93588000D01*
X154917000Y-98128000D02*
X154932000Y-98128000D01*
X152792000Y-98128000D02*
X152807000Y-98128000D01*
X154932000Y-98128000D02*
X154932000Y-93588000D01*
X152792000Y-98128000D02*
X152792000Y-93588000D01*
X159242000Y-89138000D02*
X159242000Y-86398000D01*
X166482000Y-89138000D02*
X166482000Y-86398000D01*
X166482000Y-86398000D02*
X159242000Y-86398000D01*
X166482000Y-89138000D02*
X159242000Y-89138000D01*
X147762000Y-104963225D02*
X147262000Y-104963225D01*
X147512000Y-104713225D02*
X147512000Y-105213225D01*
X146321000Y-110119000D02*
X145753000Y-110119000D01*
X146555000Y-110079000D02*
X145519000Y-110079000D01*
X146714000Y-110039000D02*
X145360000Y-110039000D01*
X146842000Y-109999000D02*
X145232000Y-109999000D01*
X146952000Y-109959000D02*
X145122000Y-109959000D01*
X147048000Y-109919000D02*
X145026000Y-109919000D01*
X147135000Y-109879000D02*
X144939000Y-109879000D01*
X147215000Y-109839000D02*
X144859000Y-109839000D01*
X144997000Y-109799000D02*
X144786000Y-109799000D01*
X147288000Y-109799000D02*
X147077000Y-109799000D01*
X144997000Y-109759000D02*
X144718000Y-109759000D01*
X147356000Y-109759000D02*
X147077000Y-109759000D01*
X144997000Y-109719000D02*
X144654000Y-109719000D01*
X147420000Y-109719000D02*
X147077000Y-109719000D01*
X144997000Y-109679000D02*
X144594000Y-109679000D01*
X147480000Y-109679000D02*
X147077000Y-109679000D01*
X144997000Y-109639000D02*
X144537000Y-109639000D01*
X147537000Y-109639000D02*
X147077000Y-109639000D01*
X144997000Y-109599000D02*
X144483000Y-109599000D01*
X147591000Y-109599000D02*
X147077000Y-109599000D01*
X144997000Y-109559000D02*
X144432000Y-109559000D01*
X147642000Y-109559000D02*
X147077000Y-109559000D01*
X144997000Y-109519000D02*
X144384000Y-109519000D01*
X147690000Y-109519000D02*
X147077000Y-109519000D01*
X144997000Y-109479000D02*
X144338000Y-109479000D01*
X147736000Y-109479000D02*
X147077000Y-109479000D01*
X144997000Y-109439000D02*
X144294000Y-109439000D01*
X147780000Y-109439000D02*
X147077000Y-109439000D01*
X144997000Y-109399000D02*
X144252000Y-109399000D01*
X147822000Y-109399000D02*
X147077000Y-109399000D01*
X144997000Y-109359000D02*
X144211000Y-109359000D01*
X147863000Y-109359000D02*
X147077000Y-109359000D01*
X144997000Y-109319000D02*
X144173000Y-109319000D01*
X147901000Y-109319000D02*
X147077000Y-109319000D01*
X144997000Y-109279000D02*
X144136000Y-109279000D01*
X147938000Y-109279000D02*
X147077000Y-109279000D01*
X144997000Y-109239000D02*
X144100000Y-109239000D01*
X147974000Y-109239000D02*
X147077000Y-109239000D01*
X144997000Y-109199000D02*
X144066000Y-109199000D01*
X148008000Y-109199000D02*
X147077000Y-109199000D01*
X144997000Y-109159000D02*
X144033000Y-109159000D01*
X148041000Y-109159000D02*
X147077000Y-109159000D01*
X144997000Y-109119000D02*
X144002000Y-109119000D01*
X148072000Y-109119000D02*
X147077000Y-109119000D01*
X144997000Y-109079000D02*
X143972000Y-109079000D01*
X148102000Y-109079000D02*
X147077000Y-109079000D01*
X144997000Y-109039000D02*
X143942000Y-109039000D01*
X148132000Y-109039000D02*
X147077000Y-109039000D01*
X144997000Y-108999000D02*
X143915000Y-108999000D01*
X148159000Y-108999000D02*
X147077000Y-108999000D01*
X144997000Y-108959000D02*
X143888000Y-108959000D01*
X148186000Y-108959000D02*
X147077000Y-108959000D01*
X144997000Y-108919000D02*
X143862000Y-108919000D01*
X148212000Y-108919000D02*
X147077000Y-108919000D01*
X144997000Y-108879000D02*
X143837000Y-108879000D01*
X148237000Y-108879000D02*
X147077000Y-108879000D01*
X144997000Y-108839000D02*
X143813000Y-108839000D01*
X148261000Y-108839000D02*
X147077000Y-108839000D01*
X144997000Y-108799000D02*
X143790000Y-108799000D01*
X148284000Y-108799000D02*
X147077000Y-108799000D01*
X144997000Y-108759000D02*
X143769000Y-108759000D01*
X148305000Y-108759000D02*
X147077000Y-108759000D01*
X144997000Y-108719000D02*
X143747000Y-108719000D01*
X148327000Y-108719000D02*
X147077000Y-108719000D01*
X144997000Y-108679000D02*
X143727000Y-108679000D01*
X148347000Y-108679000D02*
X147077000Y-108679000D01*
X144997000Y-108639000D02*
X143708000Y-108639000D01*
X148366000Y-108639000D02*
X147077000Y-108639000D01*
X144997000Y-108599000D02*
X143689000Y-108599000D01*
X148385000Y-108599000D02*
X147077000Y-108599000D01*
X144997000Y-108559000D02*
X143672000Y-108559000D01*
X148402000Y-108559000D02*
X147077000Y-108559000D01*
X144997000Y-108519000D02*
X143655000Y-108519000D01*
X148419000Y-108519000D02*
X147077000Y-108519000D01*
X144997000Y-108479000D02*
X143639000Y-108479000D01*
X148435000Y-108479000D02*
X147077000Y-108479000D01*
X144997000Y-108439000D02*
X143623000Y-108439000D01*
X148451000Y-108439000D02*
X147077000Y-108439000D01*
X144997000Y-108399000D02*
X143609000Y-108399000D01*
X148465000Y-108399000D02*
X147077000Y-108399000D01*
X144997000Y-108359000D02*
X143595000Y-108359000D01*
X148479000Y-108359000D02*
X147077000Y-108359000D01*
X144997000Y-108319000D02*
X143582000Y-108319000D01*
X148492000Y-108319000D02*
X147077000Y-108319000D01*
X144997000Y-108279000D02*
X143569000Y-108279000D01*
X148505000Y-108279000D02*
X147077000Y-108279000D01*
X144997000Y-108239000D02*
X143557000Y-108239000D01*
X148517000Y-108239000D02*
X147077000Y-108239000D01*
X144997000Y-108198000D02*
X143546000Y-108198000D01*
X148528000Y-108198000D02*
X147077000Y-108198000D01*
X144997000Y-108158000D02*
X143536000Y-108158000D01*
X148538000Y-108158000D02*
X147077000Y-108158000D01*
X144997000Y-108118000D02*
X143526000Y-108118000D01*
X148548000Y-108118000D02*
X147077000Y-108118000D01*
X144997000Y-108078000D02*
X143517000Y-108078000D01*
X148557000Y-108078000D02*
X147077000Y-108078000D01*
X144997000Y-108038000D02*
X143509000Y-108038000D01*
X148565000Y-108038000D02*
X147077000Y-108038000D01*
X144997000Y-107998000D02*
X143501000Y-107998000D01*
X148573000Y-107998000D02*
X147077000Y-107998000D01*
X144997000Y-107958000D02*
X143494000Y-107958000D01*
X148580000Y-107958000D02*
X147077000Y-107958000D01*
X144997000Y-107918000D02*
X143487000Y-107918000D01*
X148587000Y-107918000D02*
X147077000Y-107918000D01*
X144997000Y-107878000D02*
X143481000Y-107878000D01*
X148593000Y-107878000D02*
X147077000Y-107878000D01*
X144997000Y-107838000D02*
X143476000Y-107838000D01*
X148598000Y-107838000D02*
X147077000Y-107838000D01*
X144997000Y-107798000D02*
X143472000Y-107798000D01*
X148602000Y-107798000D02*
X147077000Y-107798000D01*
X144997000Y-107758000D02*
X143468000Y-107758000D01*
X148606000Y-107758000D02*
X147077000Y-107758000D01*
X148610000Y-107718000D02*
X143464000Y-107718000D01*
X148613000Y-107678000D02*
X143461000Y-107678000D01*
X148615000Y-107638000D02*
X143459000Y-107638000D01*
X148616000Y-107598000D02*
X143458000Y-107598000D01*
X148617000Y-107558000D02*
X143457000Y-107558000D01*
X148617000Y-107518000D02*
X143457000Y-107518000D01*
X148657000Y-107518000D02*
G75*
G03X148657000Y-107518000I-2620000J0D01*
G01*
D11*
X145290095Y-95464380D02*
X145290095Y-96273904D01*
X145337714Y-96369142D01*
X145385333Y-96416761D01*
X145480571Y-96464380D01*
X145671047Y-96464380D01*
X145766285Y-96416761D01*
X145813904Y-96369142D01*
X145861523Y-96273904D01*
X145861523Y-95464380D01*
X146861523Y-96464380D02*
X146290095Y-96464380D01*
X146575809Y-96464380D02*
X146575809Y-95464380D01*
X146480571Y-95607238D01*
X146385333Y-95702476D01*
X146290095Y-95750095D01*
X142266761Y-60836380D02*
X141933428Y-60360190D01*
X141695333Y-60836380D02*
X141695333Y-59836380D01*
X142076285Y-59836380D01*
X142171523Y-59884000D01*
X142219142Y-59931619D01*
X142266761Y-60026857D01*
X142266761Y-60169714D01*
X142219142Y-60264952D01*
X142171523Y-60312571D01*
X142076285Y-60360190D01*
X141695333Y-60360190D01*
X142552476Y-59836380D02*
X142885809Y-60836380D01*
X143219142Y-59836380D01*
X144076285Y-60836380D02*
X143504857Y-60836380D01*
X143790571Y-60836380D02*
X143790571Y-59836380D01*
X143695333Y-59979238D01*
X143600095Y-60074476D01*
X143504857Y-60122095D01*
X121356380Y-96024666D02*
X120880190Y-96358000D01*
X121356380Y-96596095D02*
X120356380Y-96596095D01*
X120356380Y-96215142D01*
X120404000Y-96119904D01*
X120451619Y-96072285D01*
X120546857Y-96024666D01*
X120689714Y-96024666D01*
X120784952Y-96072285D01*
X120832571Y-96119904D01*
X120880190Y-96215142D01*
X120880190Y-96596095D01*
X121356380Y-95548476D02*
X121356380Y-95358000D01*
X121308761Y-95262761D01*
X121261142Y-95215142D01*
X121118285Y-95119904D01*
X120927809Y-95072285D01*
X120546857Y-95072285D01*
X120451619Y-95119904D01*
X120404000Y-95167523D01*
X120356380Y-95262761D01*
X120356380Y-95453238D01*
X120404000Y-95548476D01*
X120451619Y-95596095D01*
X120546857Y-95643714D01*
X120784952Y-95643714D01*
X120880190Y-95596095D01*
X120927809Y-95548476D01*
X120975428Y-95453238D01*
X120975428Y-95262761D01*
X120927809Y-95167523D01*
X120880190Y-95119904D01*
X120784952Y-95072285D01*
X125420380Y-96024666D02*
X124944190Y-96358000D01*
X125420380Y-96596095D02*
X124420380Y-96596095D01*
X124420380Y-96215142D01*
X124468000Y-96119904D01*
X124515619Y-96072285D01*
X124610857Y-96024666D01*
X124753714Y-96024666D01*
X124848952Y-96072285D01*
X124896571Y-96119904D01*
X124944190Y-96215142D01*
X124944190Y-96596095D01*
X124848952Y-95453238D02*
X124801333Y-95548476D01*
X124753714Y-95596095D01*
X124658476Y-95643714D01*
X124610857Y-95643714D01*
X124515619Y-95596095D01*
X124468000Y-95548476D01*
X124420380Y-95453238D01*
X124420380Y-95262761D01*
X124468000Y-95167523D01*
X124515619Y-95119904D01*
X124610857Y-95072285D01*
X124658476Y-95072285D01*
X124753714Y-95119904D01*
X124801333Y-95167523D01*
X124848952Y-95262761D01*
X124848952Y-95453238D01*
X124896571Y-95548476D01*
X124944190Y-95596095D01*
X125039428Y-95643714D01*
X125229904Y-95643714D01*
X125325142Y-95596095D01*
X125372761Y-95548476D01*
X125420380Y-95453238D01*
X125420380Y-95262761D01*
X125372761Y-95167523D01*
X125325142Y-95119904D01*
X125229904Y-95072285D01*
X125039428Y-95072285D01*
X124944190Y-95119904D01*
X124896571Y-95167523D01*
X124848952Y-95262761D01*
X135834380Y-95924666D02*
X135358190Y-96258000D01*
X135834380Y-96496095D02*
X134834380Y-96496095D01*
X134834380Y-96115142D01*
X134882000Y-96019904D01*
X134929619Y-95972285D01*
X135024857Y-95924666D01*
X135167714Y-95924666D01*
X135262952Y-95972285D01*
X135310571Y-96019904D01*
X135358190Y-96115142D01*
X135358190Y-96496095D01*
X134834380Y-95591333D02*
X134834380Y-94924666D01*
X135834380Y-95353238D01*
X145883333Y-103576380D02*
X145550000Y-103100190D01*
X145311904Y-103576380D02*
X145311904Y-102576380D01*
X145692857Y-102576380D01*
X145788095Y-102624000D01*
X145835714Y-102671619D01*
X145883333Y-102766857D01*
X145883333Y-102909714D01*
X145835714Y-103004952D01*
X145788095Y-103052571D01*
X145692857Y-103100190D01*
X145311904Y-103100190D01*
X146740476Y-102576380D02*
X146550000Y-102576380D01*
X146454761Y-102624000D01*
X146407142Y-102671619D01*
X146311904Y-102814476D01*
X146264285Y-103004952D01*
X146264285Y-103385904D01*
X146311904Y-103481142D01*
X146359523Y-103528761D01*
X146454761Y-103576380D01*
X146645238Y-103576380D01*
X146740476Y-103528761D01*
X146788095Y-103481142D01*
X146835714Y-103385904D01*
X146835714Y-103147809D01*
X146788095Y-103052571D01*
X146740476Y-103004952D01*
X146645238Y-102957333D01*
X146454761Y-102957333D01*
X146359523Y-103004952D01*
X146311904Y-103052571D01*
X146264285Y-103147809D01*
X157678380Y-96024666D02*
X157202190Y-96358000D01*
X157678380Y-96596095D02*
X156678380Y-96596095D01*
X156678380Y-96215142D01*
X156726000Y-96119904D01*
X156773619Y-96072285D01*
X156868857Y-96024666D01*
X157011714Y-96024666D01*
X157106952Y-96072285D01*
X157154571Y-96119904D01*
X157202190Y-96215142D01*
X157202190Y-96596095D01*
X156678380Y-95119904D02*
X156678380Y-95596095D01*
X157154571Y-95643714D01*
X157106952Y-95596095D01*
X157059333Y-95500857D01*
X157059333Y-95262761D01*
X157106952Y-95167523D01*
X157154571Y-95119904D01*
X157249809Y-95072285D01*
X157487904Y-95072285D01*
X157583142Y-95119904D01*
X157630761Y-95167523D01*
X157678380Y-95262761D01*
X157678380Y-95500857D01*
X157630761Y-95596095D01*
X157583142Y-95643714D01*
X165298380Y-95924666D02*
X164822190Y-96258000D01*
X165298380Y-96496095D02*
X164298380Y-96496095D01*
X164298380Y-96115142D01*
X164346000Y-96019904D01*
X164393619Y-95972285D01*
X164488857Y-95924666D01*
X164631714Y-95924666D01*
X164726952Y-95972285D01*
X164774571Y-96019904D01*
X164822190Y-96115142D01*
X164822190Y-96496095D01*
X164631714Y-95067523D02*
X165298380Y-95067523D01*
X164250761Y-95305619D02*
X164965047Y-95543714D01*
X164965047Y-94924666D01*
X161742380Y-96024666D02*
X161266190Y-96358000D01*
X161742380Y-96596095D02*
X160742380Y-96596095D01*
X160742380Y-96215142D01*
X160790000Y-96119904D01*
X160837619Y-96072285D01*
X160932857Y-96024666D01*
X161075714Y-96024666D01*
X161170952Y-96072285D01*
X161218571Y-96119904D01*
X161266190Y-96215142D01*
X161266190Y-96596095D01*
X160742380Y-95691333D02*
X160742380Y-95072285D01*
X161123333Y-95405619D01*
X161123333Y-95262761D01*
X161170952Y-95167523D01*
X161218571Y-95119904D01*
X161313809Y-95072285D01*
X161551904Y-95072285D01*
X161647142Y-95119904D01*
X161694761Y-95167523D01*
X161742380Y-95262761D01*
X161742380Y-95548476D01*
X161694761Y-95643714D01*
X161647142Y-95691333D01*
X156025333Y-106624380D02*
X155692000Y-106148190D01*
X155453904Y-106624380D02*
X155453904Y-105624380D01*
X155834857Y-105624380D01*
X155930095Y-105672000D01*
X155977714Y-105719619D01*
X156025333Y-105814857D01*
X156025333Y-105957714D01*
X155977714Y-106052952D01*
X155930095Y-106100571D01*
X155834857Y-106148190D01*
X155453904Y-106148190D01*
X156406285Y-105719619D02*
X156453904Y-105672000D01*
X156549142Y-105624380D01*
X156787238Y-105624380D01*
X156882476Y-105672000D01*
X156930095Y-105719619D01*
X156977714Y-105814857D01*
X156977714Y-105910095D01*
X156930095Y-106052952D01*
X156358666Y-106624380D01*
X156977714Y-106624380D01*
X135775333Y-106624380D02*
X135442000Y-106148190D01*
X135203904Y-106624380D02*
X135203904Y-105624380D01*
X135584857Y-105624380D01*
X135680095Y-105672000D01*
X135727714Y-105719619D01*
X135775333Y-105814857D01*
X135775333Y-105957714D01*
X135727714Y-106052952D01*
X135680095Y-106100571D01*
X135584857Y-106148190D01*
X135203904Y-106148190D01*
X136727714Y-106624380D02*
X136156285Y-106624380D01*
X136442000Y-106624380D02*
X136442000Y-105624380D01*
X136346761Y-105767238D01*
X136251523Y-105862476D01*
X136156285Y-105910095D01*
X130135333Y-100179142D02*
X130087714Y-100226761D01*
X129944857Y-100274380D01*
X129849619Y-100274380D01*
X129706761Y-100226761D01*
X129611523Y-100131523D01*
X129563904Y-100036285D01*
X129516285Y-99845809D01*
X129516285Y-99702952D01*
X129563904Y-99512476D01*
X129611523Y-99417238D01*
X129706761Y-99322000D01*
X129849619Y-99274380D01*
X129944857Y-99274380D01*
X130087714Y-99322000D01*
X130135333Y-99369619D01*
X131040095Y-99274380D02*
X130563904Y-99274380D01*
X130516285Y-99750571D01*
X130563904Y-99702952D01*
X130659142Y-99655333D01*
X130897238Y-99655333D01*
X130992476Y-99702952D01*
X131040095Y-99750571D01*
X131087714Y-99845809D01*
X131087714Y-100083904D01*
X131040095Y-100179142D01*
X130992476Y-100226761D01*
X130897238Y-100274380D01*
X130659142Y-100274380D01*
X130563904Y-100226761D01*
X130516285Y-100179142D01*
X138771333Y-100941142D02*
X138723714Y-100988761D01*
X138580857Y-101036380D01*
X138485619Y-101036380D01*
X138342761Y-100988761D01*
X138247523Y-100893523D01*
X138199904Y-100798285D01*
X138152285Y-100607809D01*
X138152285Y-100464952D01*
X138199904Y-100274476D01*
X138247523Y-100179238D01*
X138342761Y-100084000D01*
X138485619Y-100036380D01*
X138580857Y-100036380D01*
X138723714Y-100084000D01*
X138771333Y-100131619D01*
X139628476Y-100369714D02*
X139628476Y-101036380D01*
X139390380Y-99988761D02*
X139152285Y-100703047D01*
X139771333Y-100703047D01*
X153757333Y-101195142D02*
X153709714Y-101242761D01*
X153566857Y-101290380D01*
X153471619Y-101290380D01*
X153328761Y-101242761D01*
X153233523Y-101147523D01*
X153185904Y-101052285D01*
X153138285Y-100861809D01*
X153138285Y-100718952D01*
X153185904Y-100528476D01*
X153233523Y-100433238D01*
X153328761Y-100338000D01*
X153471619Y-100290380D01*
X153566857Y-100290380D01*
X153709714Y-100338000D01*
X153757333Y-100385619D01*
X154090666Y-100290380D02*
X154709714Y-100290380D01*
X154376380Y-100671333D01*
X154519238Y-100671333D01*
X154614476Y-100718952D01*
X154662095Y-100766571D01*
X154709714Y-100861809D01*
X154709714Y-101099904D01*
X154662095Y-101195142D01*
X154614476Y-101242761D01*
X154519238Y-101290380D01*
X154233523Y-101290380D01*
X154138285Y-101242761D01*
X154090666Y-101195142D01*
X162647333Y-88241142D02*
X162599714Y-88288761D01*
X162456857Y-88336380D01*
X162361619Y-88336380D01*
X162218761Y-88288761D01*
X162123523Y-88193523D01*
X162075904Y-88098285D01*
X162028285Y-87907809D01*
X162028285Y-87764952D01*
X162075904Y-87574476D01*
X162123523Y-87479238D01*
X162218761Y-87384000D01*
X162361619Y-87336380D01*
X162456857Y-87336380D01*
X162599714Y-87384000D01*
X162647333Y-87431619D01*
X163028285Y-87431619D02*
X163075904Y-87384000D01*
X163171142Y-87336380D01*
X163409238Y-87336380D01*
X163504476Y-87384000D01*
X163552095Y-87431619D01*
X163599714Y-87526857D01*
X163599714Y-87622095D01*
X163552095Y-87764952D01*
X162980666Y-88336380D01*
X163599714Y-88336380D01*
X149439333Y-109577142D02*
X149391714Y-109624761D01*
X149248857Y-109672380D01*
X149153619Y-109672380D01*
X149010761Y-109624761D01*
X148915523Y-109529523D01*
X148867904Y-109434285D01*
X148820285Y-109243809D01*
X148820285Y-109100952D01*
X148867904Y-108910476D01*
X148915523Y-108815238D01*
X149010761Y-108720000D01*
X149153619Y-108672380D01*
X149248857Y-108672380D01*
X149391714Y-108720000D01*
X149439333Y-108767619D01*
X150391714Y-109672380D02*
X149820285Y-109672380D01*
X150106000Y-109672380D02*
X150106000Y-108672380D01*
X150010761Y-108815238D01*
X149915523Y-108910476D01*
X149820285Y-108958095D01*
M02*
